<svg xmlns="http://www.w3.org/2000/svg" xmlns:xlink="http://www.w3.org/1999/xlink" width="40" zoomAndPan="magnify" viewBox="0 0 30 30.000001" height="40" preserveAspectRatio="xMidYMid meet" version="1.0"><defs><clipPath id="d9fce47ee6"><path d="M 0.484375 4.300781 L 29.515625 4.300781 L 29.515625 24.621094 L 0.484375 24.621094 Z M 0.484375 4.300781 " clip-rule="nonzero"/></clipPath></defs><g clip-path="url(#d9fce47ee6)"><path fill="#000000" d="M 29.398438 11.980469 C 29.289062 10.195312 27.921875 8.589844 26.195312 8.132812 C 25.085938 7.835938 23.824219 7.960938 22.8125 8.511719 C 22.765625 8.355469 22.714844 8.199219 22.65625 8.042969 C 21.957031 6.199219 20.128906 4.957031 18.226562 4.578125 C 17.851562 4.5 17.472656 4.453125 17.09375 4.425781 C 16 4.300781 15.007812 4.699219 14.097656 5.226562 C 11.722656 6.601562 9.765625 8.941406 6.910156 9.234375 C 6.859375 9.234375 6.820312 9.273438 6.8125 9.324219 C 6.808594 9.378906 6.847656 9.429688 6.90625 9.4375 C 7.386719 9.496094 7.878906 9.480469 8.359375 9.398438 C 9.789062 9.15625 11.097656 8.394531 12.296875 7.644531 C 13.691406 6.816406 15.34375 5.414062 16.957031 5.582031 C 18.957031 5.675781 21.007812 6.558594 22.046875 8.335938 C 22.144531 8.496094 22.230469 8.664062 22.308594 8.835938 C 22.042969 9.039062 21.804688 9.28125 21.605469 9.554688 C 21.363281 9.898438 21.210938 10.320312 21.21875 10.734375 C 21.222656 10.777344 21.25 10.820312 21.296875 10.832031 C 21.351562 10.84375 21.410156 10.8125 21.421875 10.757812 C 21.519531 10.402344 21.71875 10.101562 21.972656 9.855469 C 22.144531 9.699219 22.332031 9.558594 22.535156 9.4375 C 22.664062 9.359375 22.804688 9.289062 22.945312 9.226562 C 24.179688 8.683594 25.730469 8.765625 26.839844 9.492188 C 27.605469 10.003906 28.171875 10.828125 28.316406 11.734375 C 28.378906 12.164062 28.351562 12.601562 28.304688 13.03125 C 28.167969 14.3125 27.523438 15.535156 26.363281 16.132812 C 25.664062 16.5 24.886719 16.726562 24.097656 16.789062 C 22.609375 16.941406 21.441406 16.378906 20.179688 15.875 C 21.128906 15.511719 22.046875 14.769531 22.070312 13.707031 C 22.074219 13.597656 21.914062 13.566406 21.871094 13.667969 C 21.597656 14.300781 21.089844 14.707031 20.488281 15.003906 C 20.082031 15.214844 19.644531 15.34375 19.222656 15.523438 C 19.058594 15.472656 18.890625 15.421875 18.71875 15.378906 C 18.308594 15.273438 17.894531 15.203125 17.480469 15.160156 C 18.351562 14.535156 19.019531 13.550781 19.226562 12.574219 C 19.339844 12.066406 19.367188 11.503906 19.148438 11.019531 C 19.097656 10.910156 18.929688 10.964844 18.953125 11.078125 C 19.023438 11.542969 18.914062 12.003906 18.746094 12.433594 C 18.308594 13.609375 17.347656 14.527344 16.222656 15.050781 C 16.1875 15.066406 16.152344 15.082031 16.117188 15.101562 C 15.648438 15.109375 15.179688 15.140625 14.710938 15.195312 C 14.742188 15.160156 14.769531 15.128906 14.800781 15.09375 C 15.316406 14.496094 15.65625 13.695312 15.617188 12.90625 C 15.613281 12.863281 15.582031 12.820312 15.539062 12.8125 C 15.480469 12.796875 15.425781 12.832031 15.414062 12.890625 C 15.359375 13.117188 15.285156 13.332031 15.191406 13.535156 C 14.90625 14.132812 14.441406 14.640625 13.886719 14.992188 C 12.46875 15.90625 10.335938 15.726562 8.90625 14.9375 C 8.132812 14.480469 7.539062 13.738281 6.894531 13.085938 C 6.8125 13.007812 6.683594 13.09375 6.722656 13.199219 C 6.898438 13.652344 7.113281 14.085938 7.382812 14.507812 C 7.941406 15.394531 8.695312 15.941406 9.617188 16.238281 C 9.289062 16.34375 8.96875 16.46875 8.65625 16.617188 C 7.832031 16.996094 7.023438 17.554688 6.121094 17.578125 C 4.136719 17.855469 2.21875 15.023438 1.808594 13.328125 C 1.4375 11.882812 2.082031 10.246094 3.378906 9.46875 C 5.015625 8.464844 7.070312 8.503906 8.859375 7.769531 C 9.6875 7.457031 10.394531 6.894531 11.125 6.425781 C 11.230469 6.355469 11.144531 6.195312 11.027344 6.246094 C 10.246094 6.613281 9.523438 7.082031 8.695312 7.316406 C 7.472656 7.683594 6.144531 7.75 4.875 8.027344 C 3.980469 8.21875 3.066406 8.550781 2.339844 9.136719 C 1.09375 10.117188 0.484375 11.800781 0.785156 13.355469 C 1.070312 14.929688 2.21875 16.734375 3.457031 17.746094 C 4.210938 18.367188 5.21875 18.804688 6.234375 18.675781 C 6.503906 18.667969 6.765625 18.625 7.015625 18.5625 C 7.1875 19.789062 7.332031 21.019531 7.425781 22.253906 C 7.488281 22.992188 7.507812 23.878906 7.496094 24.621094 C 7.496094 24.621094 8.40625 24.195312 8.40625 24.195312 C 9.289062 23.792969 10.296875 23.539062 11.265625 23.339844 C 13.921875 22.824219 17.863281 22.457031 20.414062 23.421875 C 20.464844 23.445312 20.519531 23.425781 20.546875 23.375 C 20.570312 23.328125 20.550781 23.265625 20.5 23.238281 C 17.960938 22.007812 13.894531 22.027344 11.101562 22.3125 C 10.300781 22.40625 9.515625 22.523438 8.734375 22.726562 C 8.566406 21.207031 8.292969 19.703125 7.992188 18.203125 C 8.550781 17.949219 9.058594 17.65625 9.636719 17.441406 C 10.328125 17.1875 11.0625 17.03125 11.796875 16.878906 C 12.910156 16.644531 14.042969 16.425781 15.164062 16.328125 C 16.449219 16.21875 17.726562 16.277344 18.945312 16.671875 C 19.660156 16.90625 20.335938 17.230469 21.046875 17.488281 C 20.925781 18.6875 20.929688 19.921875 20.894531 21.128906 C 19.738281 20.742188 18.53125 20.53125 17.316406 20.429688 C 15.828125 20.324219 14.289062 20.410156 12.886719 20.945312 C 12.835938 20.964844 12.808594 21.015625 12.824219 21.066406 C 12.835938 21.121094 12.894531 21.152344 12.949219 21.140625 C 13.648438 20.957031 14.371094 20.894531 15.085938 20.90625 C 16.871094 20.945312 18.640625 21.378906 20.273438 22.078125 C 20.597656 22.21875 20.90625 22.371094 21.195312 22.539062 C 21.195312 22.539062 22.042969 22.941406 22.042969 22.941406 C 22.054688 22.695312 22.097656 21.941406 22.101562 21.707031 C 22.121094 20.449219 22.070312 19.09375 22.152344 17.816406 C 23.75 18.15625 25.472656 17.910156 26.90625 17.121094 C 28.785156 16.101562 29.515625 14.011719 29.398438 11.980469 Z M 29.398438 11.980469 " fill-opacity="1" fill-rule="nonzero"/></g></svg>