<svg xmlns="http://www.w3.org/2000/svg" xmlns:xlink="http://www.w3.org/1999/xlink" width="40" zoomAndPan="magnify" viewBox="0 0 30 30.000001" height="40" preserveAspectRatio="xMidYMid meet" version="1.0"><defs><clipPath id="613cb03858"><path d="M 0.484375 4.300781 L 29.515625 4.300781 L 29.515625 24.621094 L 0.484375 24.621094 Z M 0.484375 4.300781 " clip-rule="nonzero"/></clipPath></defs><g clip-path="url(#613cb03858)"><path fill="#ffffff" d="M 29.398438 12.019531 C 29.289062 10.226562 27.921875 8.609375 26.195312 8.152344 C 25.085938 7.855469 23.824219 7.980469 22.8125 8.53125 C 22.765625 8.375 22.714844 8.21875 22.65625 8.0625 C 21.957031 6.210938 20.128906 4.960938 18.226562 4.578125 C 17.851562 4.5 17.472656 4.453125 17.09375 4.425781 C 16 4.300781 15.007812 4.703125 14.097656 5.234375 C 11.722656 6.613281 9.765625 8.964844 6.910156 9.257812 C 6.859375 9.261719 6.820312 9.296875 6.8125 9.351562 C 6.808594 9.40625 6.847656 9.457031 6.90625 9.460938 C 7.386719 9.523438 7.878906 9.507812 8.359375 9.425781 C 9.789062 9.179688 11.097656 8.417969 12.296875 7.660156 C 13.691406 6.832031 15.34375 5.421875 16.957031 5.585938 C 18.957031 5.683594 21.007812 6.570312 22.046875 8.355469 C 22.144531 8.519531 22.230469 8.6875 22.308594 8.859375 C 22.042969 9.0625 21.804688 9.304688 21.605469 9.582031 C 21.363281 9.929688 21.210938 10.351562 21.21875 10.765625 C 21.222656 10.8125 21.25 10.851562 21.296875 10.863281 C 21.351562 10.878906 21.410156 10.84375 21.421875 10.789062 C 21.519531 10.433594 21.71875 10.128906 21.972656 9.882812 C 22.144531 9.726562 22.332031 9.585938 22.535156 9.464844 C 22.664062 9.386719 22.804688 9.316406 22.945312 9.253906 C 24.179688 8.703125 25.730469 8.789062 26.839844 9.519531 C 27.605469 10.03125 28.171875 10.859375 28.316406 11.773438 C 28.378906 12.207031 28.351562 12.644531 28.304688 13.074219 C 28.167969 14.363281 27.523438 15.589844 26.363281 16.191406 C 25.664062 16.5625 24.886719 16.789062 24.097656 16.851562 C 22.609375 17.003906 21.441406 16.441406 20.179688 15.933594 C 21.128906 15.566406 22.046875 14.824219 22.070312 13.753906 C 22.074219 13.640625 21.914062 13.609375 21.871094 13.714844 C 21.597656 14.351562 21.089844 14.757812 20.488281 15.058594 C 20.082031 15.269531 19.644531 15.402344 19.222656 15.582031 C 19.058594 15.527344 18.890625 15.476562 18.71875 15.433594 C 18.308594 15.332031 17.894531 15.257812 17.480469 15.214844 C 18.351562 14.585938 19.019531 13.597656 19.226562 12.617188 C 19.339844 12.105469 19.367188 11.539062 19.148438 11.054688 C 19.097656 10.941406 18.929688 10.996094 18.953125 11.113281 C 19.023438 11.578125 18.914062 12.042969 18.746094 12.476562 C 18.308594 13.65625 17.347656 14.578125 16.222656 15.105469 C 16.1875 15.121094 16.152344 15.136719 16.117188 15.15625 C 15.648438 15.164062 15.179688 15.195312 14.710938 15.25 C 14.742188 15.214844 14.769531 15.183594 14.800781 15.148438 C 15.316406 14.546875 15.65625 13.742188 15.617188 12.949219 C 15.613281 12.90625 15.582031 12.863281 15.539062 12.855469 C 15.480469 12.839844 15.425781 12.875 15.414062 12.933594 C 15.359375 13.160156 15.285156 13.375 15.191406 13.582031 C 14.90625 14.183594 14.441406 14.691406 13.886719 15.046875 C 12.46875 15.964844 10.335938 15.785156 8.90625 14.992188 C 8.132812 14.53125 7.539062 13.785156 6.894531 13.132812 C 6.8125 13.050781 6.683594 13.140625 6.722656 13.242188 C 6.898438 13.699219 7.113281 14.136719 7.382812 14.558594 C 7.941406 15.449219 8.695312 16 9.617188 16.300781 C 9.289062 16.40625 8.96875 16.53125 8.65625 16.679688 C 7.832031 17.0625 7.023438 17.621094 6.121094 17.644531 C 4.136719 17.925781 2.21875 15.078125 1.808594 13.371094 C 1.4375 11.917969 2.082031 10.277344 3.378906 9.492188 C 5.015625 8.488281 7.070312 8.523438 8.859375 7.789062 C 9.6875 7.472656 10.394531 6.90625 11.125 6.433594 C 11.230469 6.367188 11.144531 6.203125 11.027344 6.253906 C 10.246094 6.625 9.523438 7.097656 8.695312 7.332031 C 7.472656 7.699219 6.144531 7.765625 4.875 8.046875 C 3.980469 8.238281 3.066406 8.570312 2.339844 9.160156 C 1.09375 10.144531 0.484375 11.835938 0.785156 13.402344 C 1.070312 14.980469 2.21875 16.796875 3.457031 17.8125 C 4.210938 18.4375 5.21875 18.878906 6.234375 18.746094 C 6.503906 18.738281 6.765625 18.695312 7.015625 18.632812 C 7.1875 19.867188 7.332031 21.105469 7.425781 22.34375 C 7.488281 23.085938 7.507812 23.976562 7.496094 24.722656 C 7.496094 24.722656 8.40625 24.296875 8.40625 24.296875 C 9.289062 23.890625 10.296875 23.636719 11.265625 23.433594 C 13.921875 22.917969 17.863281 22.550781 20.414062 23.519531 C 20.464844 23.539062 20.519531 23.519531 20.546875 23.472656 C 20.570312 23.421875 20.550781 23.359375 20.5 23.335938 C 17.960938 22.097656 13.894531 22.117188 11.101562 22.40625 C 10.300781 22.5 9.515625 22.617188 8.734375 22.820312 C 8.566406 21.289062 8.292969 19.78125 7.992188 18.273438 C 8.550781 18.019531 9.058594 17.722656 9.636719 17.507812 C 10.328125 17.25 11.0625 17.097656 11.796875 16.941406 C 12.910156 16.707031 14.042969 16.484375 15.164062 16.390625 C 16.449219 16.28125 17.726562 16.335938 18.945312 16.734375 C 19.660156 16.972656 20.335938 17.292969 21.046875 17.554688 C 20.925781 18.761719 20.929688 20 20.894531 21.210938 C 19.738281 20.824219 18.53125 20.613281 17.316406 20.511719 C 15.828125 20.402344 14.289062 20.492188 12.886719 21.027344 C 12.835938 21.046875 12.808594 21.097656 12.824219 21.148438 C 12.835938 21.203125 12.894531 21.238281 12.949219 21.222656 C 13.648438 21.042969 14.371094 20.980469 15.085938 20.988281 C 16.871094 21.027344 18.640625 21.464844 20.273438 22.167969 C 20.597656 22.308594 20.90625 22.464844 21.195312 22.632812 C 21.195312 22.632812 22.042969 23.035156 22.042969 23.035156 C 22.054688 22.789062 22.097656 22.03125 22.101562 21.792969 C 22.121094 20.53125 22.070312 19.167969 22.152344 17.882812 C 23.75 18.222656 25.472656 17.976562 26.90625 17.183594 C 28.785156 16.164062 29.515625 14.058594 29.398438 12.019531 Z M 29.398438 12.019531 " fill-opacity="1" fill-rule="nonzero"/></g></svg>