<svg xmlns="http://www.w3.org/2000/svg" xmlns:xlink="http://www.w3.org/1999/xlink" width="400" zoomAndPan="magnify" viewBox="0 0 300 74.999997" height="100" preserveAspectRatio="xMidYMid meet" version="1.0"><defs><g/><clipPath id="68ccedb818"><path d="M 18.363281 3.671875 L 49.863281 3.671875 L 49.863281 26 L 18.363281 26 Z M 18.363281 3.671875 " clip-rule="nonzero"/></clipPath></defs><g fill="#c8c1a8" fill-opacity="0.5216"><g transform="translate(19.00659, 55.323942)"><g><path d="M 17.140625 -24.640625 C 17.460938 -24.640625 17.671875 -24.5 17.765625 -24.21875 L 17.84375 -24.046875 C 16.832031 -24.046875 16.085938 -23.441406 15.609375 -22.234375 C 15.128906 -21.023438 14.757812 -19.242188 14.5 -16.890625 C 16.488281 -16.515625 18.015625 -15.34375 19.078125 -13.375 C 20.578125 -14.332031 21.742188 -15.617188 22.578125 -17.234375 C 23.410156 -18.859375 23.828125 -20.457031 23.828125 -22.03125 C 23.828125 -23.601562 23.234375 -24.960938 22.046875 -26.109375 C 20.859375 -27.265625 19.164062 -27.84375 16.96875 -27.84375 C 12.71875 -27.84375 9.429688 -26.328125 7.109375 -23.296875 C 5.484375 -21.160156 4.671875 -18.882812 4.671875 -16.46875 C 4.671875 -14.050781 5.296875 -12.421875 6.546875 -11.578125 C 7.054688 -11.253906 7.617188 -11.09375 8.234375 -11.09375 C 7.992188 -10.550781 7.628906 -10.28125 7.140625 -10.28125 C 5.378906 -10.28125 4.148438 -11.207031 3.453125 -13.0625 C 3.097656 -13.945312 2.921875 -14.957031 2.921875 -16.09375 C 2.921875 -17.238281 3.175781 -18.515625 3.6875 -19.921875 C 4.769531 -22.992188 6.71875 -25.316406 9.53125 -26.890625 C 11.695312 -28.109375 14.175781 -28.71875 16.96875 -28.71875 C 18.957031 -28.71875 20.644531 -28.398438 22.03125 -27.765625 C 23.414062 -27.140625 24.410156 -26.332031 25.015625 -25.34375 C 25.679688 -24.238281 26.015625 -23.054688 26.015625 -21.796875 C 26.015625 -20.546875 25.769531 -19.34375 25.28125 -18.1875 C 24.800781 -17.039062 24.0625 -15.921875 23.0625 -14.828125 C 22.070312 -13.742188 20.90625 -12.875 19.5625 -12.21875 C 20.15625 -10.6875 20.6875 -7.847656 21.15625 -3.703125 C 21.3125 -2.359375 21.53125 -1.050781 21.8125 0.21875 C 22.425781 2.882812 23.734375 4.21875 25.734375 4.21875 C 25.679688 4.644531 25.375 4.859375 24.8125 4.859375 C 21.945312 4.859375 20.210938 3.5 19.609375 0.78125 C 19.296875 -0.507812 19.097656 -1.8125 19.015625 -3.125 C 18.941406 -4.445312 18.867188 -5.945312 18.796875 -7.625 C 18.722656 -9.300781 18.554688 -10.65625 18.296875 -11.6875 C 17.003906 -11.21875 15.632812 -10.984375 14.1875 -10.984375 L 13.859375 -10.984375 C 13.203125 -5.890625 12.085938 -2.40625 10.515625 -0.53125 C 9.890625 0.25 9.066406 0.894531 8.046875 1.40625 C 7.023438 1.925781 5.894531 2.1875 4.65625 2.1875 C 3.425781 2.1875 2.394531 1.972656 1.5625 1.546875 C 0.726562 1.128906 0.125 0.585938 -0.25 -0.078125 C -0.769531 -1.035156 -1.03125 -1.910156 -1.03125 -2.703125 C -1.03125 -3.503906 -0.910156 -4.25 -0.671875 -4.9375 C -0.441406 -5.632812 -0.101562 -6.316406 0.34375 -6.984375 C 0.789062 -7.648438 1.378906 -8.191406 2.109375 -8.609375 C 2.835938 -9.035156 3.625 -9.25 4.46875 -9.25 C 4.9375 -9.25 5.265625 -9.085938 5.453125 -8.765625 L 5.515625 -8.59375 C 3.472656 -8.59375 1.914062 -7.722656 0.84375 -5.984375 C 0.226562 -4.992188 -0.078125 -3.984375 -0.078125 -2.953125 C -0.078125 -2.484375 -0.015625 -2.003906 0.109375 -1.515625 C 0.617188 0.316406 1.90625 1.234375 3.96875 1.234375 C 4.957031 1.234375 5.84375 0.984375 6.625 0.484375 C 7.414062 -0.00390625 8.0625 -0.609375 8.5625 -1.328125 C 9.070312 -2.054688 9.535156 -3.019531 9.953125 -4.21875 C 10.585938 -6.070312 11.148438 -8.457031 11.640625 -11.375 C 10.753906 -11.675781 10.125 -12.113281 9.75 -12.6875 C 9.375 -13.257812 9.1875 -13.695312 9.1875 -14 C 9.1875 -14.3125 9.1875 -14.523438 9.1875 -14.640625 C 9.300781 -15.253906 9.65625 -15.800781 10.25 -16.28125 C 10.851562 -16.757812 11.632812 -17.007812 12.59375 -17.03125 C 12.90625 -18.632812 13.222656 -19.945312 13.546875 -20.96875 C 13.878906 -21.988281 14.347656 -22.851562 14.953125 -23.5625 C 15.566406 -24.28125 16.296875 -24.640625 17.140625 -24.640625 Z M 14.140625 -11.890625 C 15.460938 -11.890625 16.742188 -12.175781 17.984375 -12.75 C 17.273438 -14.59375 16.085938 -15.707031 14.421875 -16.09375 L 14 -11.890625 Z M 12.453125 -16.234375 C 11.609375 -16.160156 11.007812 -15.90625 10.65625 -15.46875 C 10.3125 -15.03125 10.140625 -14.671875 10.140625 -14.390625 C 10.140625 -13.429688 10.6875 -12.726562 11.78125 -12.28125 C 12.0625 -14.0625 12.285156 -15.378906 12.453125 -16.234375 Z M 12.453125 -16.234375 "/></g></g></g><g fill="#c8c1a8" fill-opacity="0.5216"><g transform="translate(46.387367, 55.323942)"><g><path d="M 0.875 -5.140625 C 0.875 -2.296875 1.882812 -0.875 3.90625 -0.875 C 4.65625 -0.875 5.445312 -1.207031 6.28125 -1.875 C 7.113281 -2.550781 7.867188 -3.359375 8.546875 -4.296875 C 10.046875 -6.453125 11.101562 -8.210938 11.71875 -9.578125 L 12.171875 -10.5625 L 13.125 -10.5625 C 12.726562 -9.625 12.140625 -8.46875 11.359375 -7.09375 C 10.585938 -5.71875 9.847656 -4.5625 9.140625 -3.625 C 8.441406 -2.6875 7.609375 -1.832031 6.640625 -1.0625 C 5.679688 -0.300781 4.769531 0.078125 3.90625 0.078125 C 0.425781 0.078125 -1.3125 -1.867188 -1.3125 -5.765625 C -1.3125 -7.578125 -0.78125 -9.382812 0.28125 -11.1875 C 1.726562 -13.695312 3.519531 -14.953125 5.65625 -14.953125 C 7.164062 -14.953125 7.921875 -14.132812 7.921875 -12.5 C 7.921875 -11.28125 7.453125 -10.007812 6.515625 -8.6875 C 5.191406 -6.90625 3.648438 -6.003906 1.890625 -5.984375 C 1.640625 -5.984375 1.476562 -6.101562 1.40625 -6.34375 L 1.375 -6.484375 C 2.59375 -6.484375 3.757812 -7.285156 4.875 -8.890625 C 5.988281 -10.492188 6.546875 -11.835938 6.546875 -12.921875 C 6.546875 -13.648438 6.265625 -14.015625 5.703125 -14.015625 C 4.453125 -14.015625 3.289062 -12.921875 2.21875 -10.734375 C 1.320312 -8.878906 0.875 -7.015625 0.875 -5.140625 Z M 0.875 -5.140625 "/></g></g></g><g fill="#c8c1a8" fill-opacity="0.5216"><g transform="translate(58.529227, 55.323942)"><g><path d="M 0.84375 -5 C 0.84375 -2.25 1.789062 -0.875 3.6875 -0.875 C 4.4375 -0.875 5.226562 -1.207031 6.0625 -1.875 C 6.894531 -2.550781 7.65625 -3.359375 8.34375 -4.296875 C 9.84375 -6.453125 10.894531 -8.210938 11.5 -9.578125 L 11.96875 -10.5625 L 12.921875 -10.5625 C 12.515625 -9.625 11.925781 -8.46875 11.15625 -7.09375 C 10.382812 -5.71875 9.644531 -4.5625 8.9375 -3.625 C 8.226562 -2.6875 7.394531 -1.832031 6.4375 -1.0625 C 5.476562 -0.300781 4.5625 0.078125 3.6875 0.078125 C 1.25 0.078125 -0.296875 -1.039062 -0.953125 -3.28125 C -1.160156 -3.976562 -1.265625 -4.859375 -1.265625 -5.921875 C -1.265625 -6.992188 -0.9375 -8.304688 -0.28125 -9.859375 C 0.675781 -12.160156 1.988281 -13.707031 3.65625 -14.5 C 4.3125 -14.800781 4.960938 -14.953125 5.609375 -14.953125 C 6.253906 -14.953125 6.765625 -14.78125 7.140625 -14.4375 C 7.585938 -14.007812 7.8125 -13.519531 7.8125 -12.96875 C 7.8125 -12.414062 7.75 -11.90625 7.625 -11.4375 C 7.507812 -10.96875 7.269531 -10.550781 6.90625 -10.1875 C 6.550781 -9.820312 6.148438 -9.640625 5.703125 -9.640625 C 5.515625 -9.640625 5.375 -9.769531 5.28125 -10.03125 C 5.46875 -10.03125 5.71875 -10.363281 6.03125 -11.03125 C 6.351562 -11.695312 6.515625 -12.359375 6.515625 -13.015625 C 6.515625 -13.679688 6.226562 -14.015625 5.65625 -14.015625 C 4.4375 -14.015625 3.328125 -12.992188 2.328125 -10.953125 C 1.335938 -8.910156 0.84375 -6.925781 0.84375 -5 Z M 0.84375 -5 "/></g></g></g><g fill="#c8c1a8" fill-opacity="0.5216"><g transform="translate(70.459921, 55.323942)"><g><path d="M 0.875 -5.140625 C 0.875 -2.296875 1.882812 -0.875 3.90625 -0.875 C 4.65625 -0.875 5.445312 -1.207031 6.28125 -1.875 C 7.113281 -2.550781 7.867188 -3.359375 8.546875 -4.296875 C 10.046875 -6.453125 11.101562 -8.210938 11.71875 -9.578125 L 12.171875 -10.5625 L 13.125 -10.5625 C 12.726562 -9.625 12.140625 -8.46875 11.359375 -7.09375 C 10.585938 -5.71875 9.847656 -4.5625 9.140625 -3.625 C 8.441406 -2.6875 7.609375 -1.832031 6.640625 -1.0625 C 5.679688 -0.300781 4.769531 0.078125 3.90625 0.078125 C 0.425781 0.078125 -1.3125 -1.867188 -1.3125 -5.765625 C -1.3125 -7.578125 -0.78125 -9.382812 0.28125 -11.1875 C 1.726562 -13.695312 3.519531 -14.953125 5.65625 -14.953125 C 7.164062 -14.953125 7.921875 -14.132812 7.921875 -12.5 C 7.921875 -11.28125 7.453125 -10.007812 6.515625 -8.6875 C 5.191406 -6.90625 3.648438 -6.003906 1.890625 -5.984375 C 1.640625 -5.984375 1.476562 -6.101562 1.40625 -6.34375 L 1.375 -6.484375 C 2.59375 -6.484375 3.757812 -7.285156 4.875 -8.890625 C 5.988281 -10.492188 6.546875 -11.835938 6.546875 -12.921875 C 6.546875 -13.648438 6.265625 -14.015625 5.703125 -14.015625 C 4.453125 -14.015625 3.289062 -12.921875 2.21875 -10.734375 C 1.320312 -8.878906 0.875 -7.015625 0.875 -5.140625 Z M 0.875 -5.140625 "/></g></g></g><g fill="#c8c1a8" fill-opacity="0.5216"><g transform="translate(82.601781, 55.323942)"><g><path d="M -0.984375 -15.375 C -0.984375 -15.632812 -0.820312 -15.765625 -0.5 -15.765625 L 1.34375 -15.765625 C 1.457031 -16.234375 1.609375 -16.820312 1.796875 -17.53125 L 2.28125 -19.359375 C 2.425781 -19.898438 2.550781 -20.390625 2.65625 -20.828125 C 2.757812 -21.273438 2.96875 -21.5 3.28125 -21.5 C 3.675781 -21.5 3.957031 -21.195312 4.125 -20.59375 C 4.1875 -20.332031 4.21875 -20.015625 4.21875 -19.640625 C 4.21875 -19.265625 4.148438 -18.785156 4.015625 -18.203125 L 3.34375 -15.765625 L 5.53125 -15.765625 C 5.738281 -15.765625 5.882812 -15.691406 5.96875 -15.546875 C 6.050781 -15.410156 6.050781 -15.273438 5.96875 -15.140625 C 5.882812 -15.015625 5.738281 -14.953125 5.53125 -14.953125 L 3.125 -14.953125 C 1.675781 -9.492188 0.953125 -5.625 0.953125 -3.34375 C 0.953125 -1.675781 1.328125 -0.84375 2.078125 -0.84375 C 2.679688 -0.84375 3.535156 -1.648438 4.640625 -3.265625 C 5.742188 -4.890625 6.695312 -6.507812 7.5 -8.125 L 8.6875 -10.5625 L 9.640625 -10.5625 C 9.503906 -10.28125 9.320312 -9.894531 9.09375 -9.40625 C 8.875 -8.925781 8.4375 -8.070312 7.78125 -6.84375 C 7.125 -5.613281 6.492188 -4.53125 5.890625 -3.59375 C 5.296875 -2.65625 4.628906 -1.800781 3.890625 -1.03125 C 3.148438 -0.269531 2.460938 0.109375 1.828125 0.109375 C 1.191406 0.109375 0.644531 -0.09375 0.1875 -0.5 C -0.269531 -0.914062 -0.5625 -1.503906 -0.6875 -2.265625 C -0.8125 -3.035156 -0.875 -3.816406 -0.875 -4.609375 C -0.875 -6.460938 -0.21875 -9.910156 1.09375 -14.953125 L -0.5 -14.953125 C -0.6875 -14.953125 -0.8125 -15.003906 -0.875 -15.109375 C -0.945312 -15.222656 -0.984375 -15.3125 -0.984375 -15.375 Z M -0.984375 -15.375 "/></g></g></g><g fill="#c8c1a8" fill-opacity="0.5216"><g transform="translate(91.294643, 55.323942)"><g><path d="M -0.984375 -15.375 C -0.984375 -15.632812 -0.820312 -15.765625 -0.5 -15.765625 L 1.34375 -15.765625 C 1.457031 -16.234375 1.609375 -16.820312 1.796875 -17.53125 L 2.28125 -19.359375 C 2.425781 -19.898438 2.550781 -20.390625 2.65625 -20.828125 C 2.757812 -21.273438 2.96875 -21.5 3.28125 -21.5 C 3.675781 -21.5 3.957031 -21.195312 4.125 -20.59375 C 4.1875 -20.332031 4.21875 -20.015625 4.21875 -19.640625 C 4.21875 -19.265625 4.148438 -18.785156 4.015625 -18.203125 L 3.34375 -15.765625 L 5.53125 -15.765625 C 5.738281 -15.765625 5.882812 -15.691406 5.96875 -15.546875 C 6.050781 -15.410156 6.050781 -15.273438 5.96875 -15.140625 C 5.882812 -15.015625 5.738281 -14.953125 5.53125 -14.953125 L 3.125 -14.953125 C 1.675781 -9.492188 0.953125 -5.625 0.953125 -3.34375 C 0.953125 -1.675781 1.328125 -0.84375 2.078125 -0.84375 C 2.679688 -0.84375 3.535156 -1.648438 4.640625 -3.265625 C 5.742188 -4.890625 6.695312 -6.507812 7.5 -8.125 L 8.6875 -10.5625 L 9.640625 -10.5625 C 9.503906 -10.28125 9.320312 -9.894531 9.09375 -9.40625 C 8.875 -8.925781 8.4375 -8.070312 7.78125 -6.84375 C 7.125 -5.613281 6.492188 -4.53125 5.890625 -3.59375 C 5.296875 -2.65625 4.628906 -1.800781 3.890625 -1.03125 C 3.148438 -0.269531 2.460938 0.109375 1.828125 0.109375 C 1.191406 0.109375 0.644531 -0.09375 0.1875 -0.5 C -0.269531 -0.914062 -0.5625 -1.503906 -0.6875 -2.265625 C -0.8125 -3.035156 -0.875 -3.816406 -0.875 -4.609375 C -0.875 -6.460938 -0.21875 -9.910156 1.09375 -14.953125 L -0.5 -14.953125 C -0.6875 -14.953125 -0.8125 -15.003906 -0.875 -15.109375 C -0.945312 -15.222656 -0.984375 -15.3125 -0.984375 -15.375 Z M -0.984375 -15.375 "/></g></g></g><g fill="#c8c1a8" fill-opacity="0.5216"><g transform="translate(99.987506, 55.323942)"><g><path d="M 0.875 -5.140625 C 0.875 -2.296875 1.882812 -0.875 3.90625 -0.875 C 4.65625 -0.875 5.445312 -1.207031 6.28125 -1.875 C 7.113281 -2.550781 7.867188 -3.359375 8.546875 -4.296875 C 10.046875 -6.453125 11.101562 -8.210938 11.71875 -9.578125 L 12.171875 -10.5625 L 13.125 -10.5625 C 12.726562 -9.625 12.140625 -8.46875 11.359375 -7.09375 C 10.585938 -5.71875 9.847656 -4.5625 9.140625 -3.625 C 8.441406 -2.6875 7.609375 -1.832031 6.640625 -1.0625 C 5.679688 -0.300781 4.769531 0.078125 3.90625 0.078125 C 0.425781 0.078125 -1.3125 -1.867188 -1.3125 -5.765625 C -1.3125 -7.578125 -0.78125 -9.382812 0.28125 -11.1875 C 1.726562 -13.695312 3.519531 -14.953125 5.65625 -14.953125 C 7.164062 -14.953125 7.921875 -14.132812 7.921875 -12.5 C 7.921875 -11.28125 7.453125 -10.007812 6.515625 -8.6875 C 5.191406 -6.90625 3.648438 -6.003906 1.890625 -5.984375 C 1.640625 -5.984375 1.476562 -6.101562 1.40625 -6.34375 L 1.375 -6.484375 C 2.59375 -6.484375 3.757812 -7.285156 4.875 -8.890625 C 5.988281 -10.492188 6.546875 -11.835938 6.546875 -12.921875 C 6.546875 -13.648438 6.265625 -14.015625 5.703125 -14.015625 C 4.453125 -14.015625 3.289062 -12.921875 2.21875 -10.734375 C 1.320312 -8.878906 0.875 -7.015625 0.875 -5.140625 Z M 0.875 -5.140625 "/></g></g></g><g fill="#c8c1a8" fill-opacity="0.5216"><g transform="translate(112.129366, 55.323942)"><g><path d="M 4.328125 -18.796875 L 4.40625 -18.796875 C 4.613281 -18.773438 4.773438 -18.679688 4.890625 -18.515625 C 5.003906 -18.347656 5.0625 -18.175781 5.0625 -18 C 5.0625 -17.820312 4.90625 -17.453125 4.59375 -16.890625 C 4.28125 -16.328125 4.125 -15.875 4.125 -15.53125 C 4.125 -15.195312 4.171875 -14.882812 4.265625 -14.59375 C 4.359375 -14.300781 4.648438 -13.585938 5.140625 -12.453125 C 6.222656 -9.992188 6.765625 -7.796875 6.765625 -5.859375 C 6.765625 -3.921875 6.238281 -2.316406 5.1875 -1.046875 C 4.144531 0.210938 2.898438 0.84375 1.453125 0.84375 C 0.015625 0.84375 -0.703125 -0.03125 -0.703125 -1.78125 C -0.703125 -3.53125 -0.0820312 -5.398438 1.15625 -7.390625 C 1.882812 -8.535156 2.671875 -9.40625 3.515625 -10 C 3.753906 -10.164062 3.914062 -10.128906 4 -9.890625 C 4.082031 -9.660156 4.03125 -9.472656 3.84375 -9.328125 C 2.476562 -8.335938 1.421875 -6.773438 0.671875 -4.640625 C -0.015625 -2.722656 -0.0859375 -1.390625 0.453125 -0.640625 C 0.640625 -0.359375 0.910156 -0.21875 1.265625 -0.21875 C 2.296875 -0.21875 3.101562 -0.90625 3.6875 -2.28125 C 4.28125 -3.664062 4.578125 -5.394531 4.578125 -7.46875 C 4.578125 -9.25 4.363281 -10.898438 3.9375 -12.421875 C 3.519531 -13.953125 3.285156 -14.832031 3.234375 -15.0625 C 2.535156 -13.726562 1.773438 -12.226562 0.953125 -10.5625 L 0 -10.5625 C 1.332031 -13.207031 2.363281 -15.203125 3.09375 -16.546875 C 3.1875 -18.046875 3.597656 -18.796875 4.328125 -18.796875 Z M 4.328125 -18.796875 "/></g></g></g><g fill="#c8c1a8" fill-opacity="0.5216"><g transform="translate(123.285798, 55.323942)"><g/></g></g><g fill="#c8c1a8" fill-opacity="0.5216"><g transform="translate(133.843933, 55.323942)"><g><path d="M 0.875 -5.140625 C 0.875 -2.296875 1.882812 -0.875 3.90625 -0.875 C 4.65625 -0.875 5.445312 -1.207031 6.28125 -1.875 C 7.113281 -2.550781 7.867188 -3.359375 8.546875 -4.296875 C 10.046875 -6.453125 11.101562 -8.210938 11.71875 -9.578125 L 12.171875 -10.5625 L 13.125 -10.5625 C 12.726562 -9.625 12.140625 -8.46875 11.359375 -7.09375 C 10.585938 -5.71875 9.847656 -4.5625 9.140625 -3.625 C 8.441406 -2.6875 7.609375 -1.832031 6.640625 -1.0625 C 5.679688 -0.300781 4.769531 0.078125 3.90625 0.078125 C 0.425781 0.078125 -1.3125 -1.867188 -1.3125 -5.765625 C -1.3125 -7.578125 -0.78125 -9.382812 0.28125 -11.1875 C 1.726562 -13.695312 3.519531 -14.953125 5.65625 -14.953125 C 7.164062 -14.953125 7.921875 -14.132812 7.921875 -12.5 C 7.921875 -11.28125 7.453125 -10.007812 6.515625 -8.6875 C 5.191406 -6.90625 3.648438 -6.003906 1.890625 -5.984375 C 1.640625 -5.984375 1.476562 -6.101562 1.40625 -6.34375 L 1.375 -6.484375 C 2.59375 -6.484375 3.757812 -7.285156 4.875 -8.890625 C 5.988281 -10.492188 6.546875 -11.835938 6.546875 -12.921875 C 6.546875 -13.648438 6.265625 -14.015625 5.703125 -14.015625 C 4.453125 -14.015625 3.289062 -12.921875 2.21875 -10.734375 C 1.320312 -8.878906 0.875 -7.015625 0.875 -5.140625 Z M 0.875 -5.140625 "/></g></g></g><g fill="#c8c1a8" fill-opacity="0.5216"><g transform="translate(145.985793, 55.323942)"><g><path d="M -0.53125 0 C -1.1875 0 -1.515625 -0.503906 -1.515625 -1.515625 C -1.515625 -2.054688 -0.859375 -5.988281 0.453125 -13.3125 C 0.523438 -13.800781 0.738281 -14.046875 1.09375 -14.046875 C 1.507812 -14.046875 1.828125 -13.738281 2.046875 -13.125 C 2.160156 -12.800781 2.21875 -12.441406 2.21875 -12.046875 C 2.21875 -11.660156 2.171875 -11.25 2.078125 -10.8125 L 1.515625 -7.984375 L 1.71875 -7.984375 C 3.832031 -12.722656 5.851562 -15.09375 7.78125 -15.09375 C 8.53125 -15.09375 9.101562 -14.863281 9.5 -14.40625 C 9.90625 -13.957031 10.109375 -13.332031 10.109375 -12.53125 C 10.109375 -11.726562 9.789062 -10 9.15625 -7.34375 C 8.519531 -4.695312 8.203125 -2.859375 8.203125 -1.828125 C 8.203125 -0.304688 8.484375 0.453125 9.046875 0.453125 C 9.046875 0.617188 8.9375 0.785156 8.71875 0.953125 C 8.507812 1.117188 8.265625 1.203125 7.984375 1.203125 C 6.628906 1.203125 5.953125 0.132812 5.953125 -2 C 5.953125 -3.320312 6.304688 -5.3125 7.015625 -7.96875 C 7.734375 -10.632812 8.09375 -12.335938 8.09375 -13.078125 C 8.09375 -13.816406 7.800781 -14.1875 7.21875 -14.1875 C 6.375 -14.1875 5.359375 -13.082031 4.171875 -10.875 C 2.984375 -8.664062 2.03125 -6.554688 1.3125 -4.546875 C 0.601562 -2.546875 0.191406 -1.285156 0.078125 -0.765625 C -0.0234375 -0.253906 -0.226562 0 -0.53125 0 Z M -0.53125 0 "/></g></g></g><g fill="#c8c1a8" fill-opacity="0.5216"><g transform="translate(160.309663, 55.323942)"><g/></g></g><g fill="#c8c1a8" fill-opacity="0.5216"><g transform="translate(170.867798, 55.323942)"><g><path d="M 8.484375 -22.421875 L 14.5 -22.03125 C 15.625 -24.59375 17.066406 -25.875 18.828125 -25.875 C 19.160156 -25.875 19.382812 -25.722656 19.5 -25.421875 L 19.53125 -25.28125 C 18.101562 -25.28125 16.976562 -24.234375 16.15625 -22.140625 C 18.53125 -22.515625 20.195312 -23.523438 21.15625 -25.171875 C 21.53125 -25.828125 21.71875 -26.351562 21.71875 -26.75 C 21.71875 -27.6875 21.390625 -28.15625 20.734375 -28.15625 C 20.867188 -28.5625 21.148438 -28.765625 21.578125 -28.765625 C 22.378906 -28.765625 22.78125 -28.21875 22.78125 -27.125 C 22.78125 -26.03125 22.34375 -24.96875 21.46875 -23.9375 C 20.207031 -22.40625 18.332031 -21.515625 15.84375 -21.265625 C 15.320312 -19.566406 14.894531 -17.453125 14.5625 -14.921875 C 14.238281 -12.390625 14.054688 -10.972656 14.015625 -10.671875 C 14.898438 -11.296875 16.429688 -12.335938 18.609375 -13.796875 C 20.796875 -15.253906 22.21875 -16.207031 22.875 -16.65625 C 23.9375 -20.476562 25.304688 -23.644531 26.984375 -26.15625 C 28.660156 -28.664062 30.425781 -29.921875 32.28125 -29.921875 C 32.914062 -29.921875 33.410156 -29.71875 33.765625 -29.3125 C 34.128906 -28.914062 34.3125 -28.398438 34.3125 -27.765625 C 34.3125 -26.054688 33.488281 -24.3125 31.84375 -22.53125 C 30.207031 -20.75 27.921875 -18.820312 24.984375 -16.75 C 23.929688 -12.507812 23.40625 -8.40625 23.40625 -4.4375 C 23.40625 -0.914062 23.910156 1.710938 24.921875 3.453125 C 25.722656 4.804688 26.800781 5.484375 28.15625 5.484375 C 28.019531 5.953125 27.691406 6.1875 27.171875 6.1875 C 25.597656 6.1875 24.332031 5.554688 23.375 4.296875 C 21.914062 2.421875 21.1875 -0.601562 21.1875 -4.78125 C 21.1875 -8.019531 21.609375 -11.425781 22.453125 -15 C 17.148438 -11.476562 14.273438 -9.5625 13.828125 -9.25 C 13.128906 -4.539062 12.226562 -1.328125 11.125 0.390625 C 10.070312 1.984375 8.734375 2.78125 7.109375 2.78125 C 6.359375 2.78125 5.757812 2.519531 5.3125 2 C 4.863281 1.488281 4.640625 0.796875 4.640625 -0.078125 C 4.640625 -2.441406 6.90625 -5.335938 11.4375 -8.765625 C 12.445312 -14.984375 13.351562 -19.125 14.15625 -21.1875 L 8.90625 -21.578125 C 6.0625 -21.578125 4.03125 -20.5 2.8125 -18.34375 C 2.226562 -17.257812 1.9375 -16.175781 1.9375 -15.09375 C 1.9375 -14.53125 2.003906 -13.984375 2.140625 -13.453125 C 2.585938 -11.785156 3.46875 -10.953125 4.78125 -10.953125 C 4.78125 -10.765625 4.691406 -10.585938 4.515625 -10.421875 C 4.347656 -10.253906 4.125 -10.171875 3.84375 -10.171875 C 2.332031 -10.171875 1.285156 -10.945312 0.703125 -12.5 C 0.441406 -13.175781 0.3125 -13.945312 0.3125 -14.8125 C 0.3125 -15.6875 0.5625 -16.675781 1.0625 -17.78125 C 2.019531 -19.976562 3.632812 -21.410156 5.90625 -22.078125 C 6.707031 -22.304688 7.566406 -22.421875 8.484375 -22.421875 Z M 33.40625 -27.8125 C 33.40625 -28.695312 33.03125 -29.140625 32.28125 -29.140625 C 31.0625 -29.140625 29.847656 -28.148438 28.640625 -26.171875 C 27.429688 -24.191406 26.378906 -21.628906 25.484375 -18.484375 C 27.992188 -20.304688 29.941406 -21.972656 31.328125 -23.484375 C 32.710938 -25.003906 33.40625 -26.445312 33.40625 -27.8125 Z M 5.5625 -0.03125 C 5.5625 1.257812 6.054688 1.90625 7.046875 1.90625 C 8.046875 1.90625 8.851562 1.117188 9.46875 -0.453125 C 10.082031 -2.023438 10.65625 -4.328125 11.1875 -7.359375 C 7.4375 -4.441406 5.5625 -2 5.5625 -0.03125 Z M 5.5625 -0.03125 "/></g></g></g><g fill="#c8c1a8" fill-opacity="0.5216"><g transform="translate(201.169657, 55.323942)"><g><path d="M 8.765625 -21.71875 C 8.054688 -20.851562 7.257812 -20.007812 6.375 -19.1875 C 5.5 -18.363281 4.9375 -17.953125 4.6875 -17.953125 C 4.445312 -17.953125 4.328125 -18.078125 4.328125 -18.328125 C 4.328125 -18.585938 4.601562 -19.144531 5.15625 -20 C 5.707031 -20.863281 6.367188 -21.726562 7.140625 -22.59375 C 7.421875 -22.945312 7.691406 -23.125 7.953125 -23.125 C 8.210938 -23.125 8.457031 -23.070312 8.6875 -22.96875 C 8.925781 -22.863281 9.046875 -22.695312 9.046875 -22.46875 C 9.046875 -22.25 8.953125 -22 8.765625 -21.71875 Z M 0.875 -5.140625 C 0.875 -2.296875 1.882812 -0.875 3.90625 -0.875 C 4.65625 -0.875 5.445312 -1.207031 6.28125 -1.875 C 7.113281 -2.550781 7.867188 -3.359375 8.546875 -4.296875 C 10.046875 -6.453125 11.101562 -8.210938 11.71875 -9.578125 L 12.171875 -10.5625 L 13.125 -10.5625 C 12.726562 -9.625 12.140625 -8.46875 11.359375 -7.09375 C 10.585938 -5.71875 9.847656 -4.5625 9.140625 -3.625 C 8.441406 -2.6875 7.609375 -1.832031 6.640625 -1.0625 C 5.679688 -0.300781 4.769531 0.078125 3.90625 0.078125 C 0.425781 0.078125 -1.3125 -1.867188 -1.3125 -5.765625 C -1.3125 -7.578125 -0.78125 -9.382812 0.28125 -11.1875 C 1.726562 -13.695312 3.519531 -14.953125 5.65625 -14.953125 C 7.164062 -14.953125 7.921875 -14.132812 7.921875 -12.5 C 7.921875 -11.28125 7.453125 -10.007812 6.515625 -8.6875 C 5.191406 -6.90625 3.648438 -6.003906 1.890625 -5.984375 C 1.640625 -5.984375 1.476562 -6.101562 1.40625 -6.34375 L 1.375 -6.484375 C 2.59375 -6.484375 3.757812 -7.285156 4.875 -8.890625 C 5.988281 -10.492188 6.546875 -11.835938 6.546875 -12.921875 C 6.546875 -13.648438 6.265625 -14.015625 5.703125 -14.015625 C 4.453125 -14.015625 3.289062 -12.921875 2.21875 -10.734375 C 1.320312 -8.878906 0.875 -7.015625 0.875 -5.140625 Z M 0.875 -5.140625 "/></g></g></g><g fill="#c8c1a8" fill-opacity="0.5216"><g transform="translate(213.311505, 55.323942)"><g><path d="M -0.5 0 C -1.15625 0 -1.484375 -0.503906 -1.484375 -1.515625 C -1.484375 -2.054688 -0.820312 -5.988281 0.5 -13.3125 C 0.59375 -13.800781 0.800781 -14.046875 1.125 -14.046875 C 1.550781 -14.046875 1.867188 -13.738281 2.078125 -13.125 C 2.191406 -12.800781 2.25 -12.441406 2.25 -12.046875 C 2.25 -11.660156 2.203125 -11.25 2.109375 -10.8125 L 1.546875 -7.921875 L 1.71875 -7.921875 C 3.738281 -12.609375 5.59375 -14.953125 7.28125 -14.953125 C 8.21875 -14.953125 8.84375 -14.5 9.15625 -13.59375 C 9.269531 -13.238281 9.328125 -12.832031 9.328125 -12.375 C 9.328125 -11.914062 9.195312 -11.414062 8.9375 -10.875 C 8.488281 -9.957031 7.820312 -9.5 6.9375 -9.5 C 6.75 -9.5 6.601562 -9.546875 6.5 -9.640625 C 6.394531 -9.734375 6.328125 -9.863281 6.296875 -10.03125 C 6.484375 -10.03125 6.726562 -10.375 7.03125 -11.0625 C 7.34375 -11.757812 7.519531 -12.398438 7.5625 -12.984375 C 7.613281 -13.578125 7.414062 -13.921875 6.96875 -14.015625 C 6.144531 -14.015625 5.171875 -12.945312 4.046875 -10.8125 C 2.921875 -8.675781 2.015625 -6.632812 1.328125 -4.6875 C 0.648438 -2.738281 0.253906 -1.46875 0.140625 -0.875 C 0.0234375 -0.289062 -0.1875 0 -0.5 0 Z M -0.5 0 "/></g></g></g><g fill="#c8c1a8" fill-opacity="0.5216"><g transform="translate(224.643902, 55.323942)"><g><path d="M 3.765625 -21.078125 C 4.304688 -21.078125 4.578125 -20.710938 4.578125 -19.984375 C 4.578125 -19.265625 4.222656 -18.679688 3.515625 -18.234375 C 3.160156 -17.992188 2.851562 -17.875 2.59375 -17.875 C 2.21875 -17.875 2 -17.992188 1.9375 -18.234375 L 1.890625 -18.34375 C 2.109375 -18.34375 2.265625 -18.570312 2.359375 -19.03125 C 2.453125 -19.488281 2.597656 -19.941406 2.796875 -20.390625 C 2.992188 -20.847656 3.316406 -21.078125 3.765625 -21.078125 Z M 1.515625 -0.84375 C 2.117188 -0.84375 2.972656 -1.648438 4.078125 -3.265625 C 5.179688 -4.890625 6.132812 -6.507812 6.9375 -8.125 L 8.125 -10.5625 L 9.078125 -10.5625 C 8.929688 -10.28125 8.75 -9.894531 8.53125 -9.40625 C 8.3125 -8.925781 7.867188 -8.070312 7.203125 -6.84375 C 6.546875 -5.613281 5.921875 -4.53125 5.328125 -3.59375 C 4.734375 -2.65625 4.066406 -1.800781 3.328125 -1.03125 C 2.585938 -0.269531 1.945312 0.109375 1.40625 0.109375 C -0.332031 0.109375 -1.203125 -1.019531 -1.203125 -3.28125 C -1.203125 -4.96875 -0.71875 -7.710938 0.25 -11.515625 C 0.34375 -11.910156 0.414062 -12.210938 0.46875 -12.421875 C 0.53125 -12.640625 0.59375 -12.914062 0.65625 -13.25 C 0.726562 -13.59375 0.800781 -13.90625 0.875 -14.1875 C 0.988281 -14.675781 1.203125 -14.921875 1.515625 -14.921875 C 1.929688 -14.921875 2.234375 -14.617188 2.421875 -14.015625 C 2.515625 -13.734375 2.5625 -13.390625 2.5625 -12.984375 C 2.5625 -12.585938 2.515625 -12.171875 2.421875 -11.734375 C 2.328125 -11.304688 2.175781 -10.664062 1.96875 -9.8125 C 1.757812 -8.96875 1.59375 -8.273438 1.46875 -7.734375 C 1.351562 -7.203125 1.226562 -6.546875 1.09375 -5.765625 C 0.832031 -4.484375 0.703125 -3.34375 0.703125 -2.34375 C 0.703125 -1.34375 0.972656 -0.84375 1.515625 -0.84375 Z M 1.515625 -0.84375 "/></g></g></g><g fill="#c8c1a8" fill-opacity="0.5216"><g transform="translate(232.73849, 55.323942)"><g><path d="M -0.984375 -15.375 C -0.984375 -15.632812 -0.820312 -15.765625 -0.5 -15.765625 L 1.34375 -15.765625 C 1.457031 -16.234375 1.609375 -16.820312 1.796875 -17.53125 L 2.28125 -19.359375 C 2.425781 -19.898438 2.550781 -20.390625 2.65625 -20.828125 C 2.757812 -21.273438 2.96875 -21.5 3.28125 -21.5 C 3.675781 -21.5 3.957031 -21.195312 4.125 -20.59375 C 4.1875 -20.332031 4.21875 -20.015625 4.21875 -19.640625 C 4.21875 -19.265625 4.148438 -18.785156 4.015625 -18.203125 L 3.34375 -15.765625 L 5.53125 -15.765625 C 5.738281 -15.765625 5.882812 -15.691406 5.96875 -15.546875 C 6.050781 -15.410156 6.050781 -15.273438 5.96875 -15.140625 C 5.882812 -15.015625 5.738281 -14.953125 5.53125 -14.953125 L 3.125 -14.953125 C 1.675781 -9.492188 0.953125 -5.625 0.953125 -3.34375 C 0.953125 -1.675781 1.328125 -0.84375 2.078125 -0.84375 C 2.679688 -0.84375 3.535156 -1.648438 4.640625 -3.265625 C 5.742188 -4.890625 6.695312 -6.507812 7.5 -8.125 L 8.6875 -10.5625 L 9.640625 -10.5625 C 9.503906 -10.28125 9.320312 -9.894531 9.09375 -9.40625 C 8.875 -8.925781 8.4375 -8.070312 7.78125 -6.84375 C 7.125 -5.613281 6.492188 -4.53125 5.890625 -3.59375 C 5.296875 -2.65625 4.628906 -1.800781 3.890625 -1.03125 C 3.148438 -0.269531 2.460938 0.109375 1.828125 0.109375 C 1.191406 0.109375 0.644531 -0.09375 0.1875 -0.5 C -0.269531 -0.914062 -0.5625 -1.503906 -0.6875 -2.265625 C -0.8125 -3.035156 -0.875 -3.816406 -0.875 -4.609375 C -0.875 -6.460938 -0.21875 -9.910156 1.09375 -14.953125 L -0.5 -14.953125 C -0.6875 -14.953125 -0.8125 -15.003906 -0.875 -15.109375 C -0.945312 -15.222656 -0.984375 -15.3125 -0.984375 -15.375 Z M -0.984375 -15.375 "/></g></g></g><g fill="#c8c1a8" fill-opacity="0.5216"><g transform="translate(241.431353, 55.323942)"><g><path d="M 0.984375 0.03125 C -0.867188 0.03125 -1.796875 -1.363281 -1.796875 -4.15625 C -1.796875 -5.769531 -1.375 -7.539062 -0.53125 -9.46875 C 0.644531 -12.070312 2.132812 -13.773438 3.9375 -14.578125 C 4.570312 -14.828125 5.210938 -14.953125 5.859375 -14.953125 C 6.503906 -14.953125 7.015625 -14.765625 7.390625 -14.390625 C 7.765625 -14.015625 7.953125 -13.59375 7.953125 -13.125 C 7.953125 -12.914062 7.835938 -12.816406 7.609375 -12.828125 C 7.390625 -12.835938 7.28125 -12.945312 7.28125 -13.15625 C 7.28125 -13.375 7.164062 -13.570312 6.9375 -13.75 C 6.71875 -13.925781 6.398438 -14.015625 5.984375 -14.015625 C 4.503906 -14.015625 3.164062 -12.6875 1.96875 -10.03125 C 0.84375 -7.570312 0.28125 -5.238281 0.28125 -3.03125 C 0.28125 -1.664062 0.578125 -0.984375 1.171875 -0.984375 C 1.773438 -0.984375 2.503906 -1.492188 3.359375 -2.515625 C 4.210938 -3.535156 5.003906 -4.726562 5.734375 -6.09375 C 7.304688 -8.957031 8.234375 -10.796875 8.515625 -11.609375 C 8.796875 -12.429688 9.097656 -12.84375 9.421875 -12.84375 C 10.015625 -12.84375 10.3125 -12.351562 10.3125 -11.375 C 10.3125 -11.0625 10.273438 -10.707031 10.203125 -10.3125 C 9.429688 -6.5625 9.015625 -4.390625 8.953125 -3.796875 C 8.890625 -3.210938 8.859375 -2.789062 8.859375 -2.53125 C 8.859375 -1.40625 9.128906 -0.84375 9.671875 -0.84375 C 10.285156 -0.84375 11.144531 -1.648438 12.25 -3.265625 C 13.351562 -4.890625 14.300781 -6.507812 15.09375 -8.125 L 16.296875 -10.5625 L 17.25 -10.5625 C 17.101562 -10.28125 16.914062 -9.894531 16.6875 -9.40625 C 16.46875 -8.925781 16.03125 -8.070312 15.375 -6.84375 C 14.71875 -5.613281 14.085938 -4.53125 13.484375 -3.59375 C 12.890625 -2.65625 12.222656 -1.800781 11.484375 -1.03125 C 10.742188 -0.269531 10.109375 0.109375 9.578125 0.109375 C 7.835938 0.109375 6.96875 -1.160156 6.96875 -3.703125 C 6.96875 -4.546875 7.0625 -5.53125 7.25 -6.65625 L 7 -6.65625 C 4.601562 -2.195312 2.597656 0.03125 0.984375 0.03125 Z M 0.984375 0.03125 "/></g></g></g><g fill="#c8c1a8" fill-opacity="0.5216"><g transform="translate(257.690888, 55.323942)"><g><path d="M 9.421875 -12.84375 C 10.015625 -12.84375 10.3125 -12.351562 10.3125 -11.375 C 10.3125 -10.664062 9.921875 -8.628906 9.140625 -5.265625 C 8.367188 -1.898438 7.675781 0.882812 7.0625 3.09375 C 6.457031 5.300781 5.882812 6.9375 5.34375 8 C 4.800781 9.070312 4.148438 10.144531 3.390625 11.21875 C 2.628906 12.300781 1.789062 13.039062 0.875 13.4375 C -0.0390625 13.84375 -1.097656 14.046875 -2.296875 14.046875 C -4.523438 14.046875 -5.640625 12.90625 -5.640625 10.625 C -5.640625 9.289062 -5.132812 7.847656 -4.125 6.296875 C -2.664062 4.023438 -0.71875 2.523438 1.71875 1.796875 C 2.582031 1.535156 3.488281 1.40625 4.4375 1.40625 C 4.59375 1.40625 4.671875 1.566406 4.671875 1.890625 C 4.671875 2.222656 4.59375 2.390625 4.4375 2.390625 C 1.664062 2.390625 -0.65625 3.484375 -2.53125 5.671875 C -3.914062 7.304688 -4.609375 8.882812 -4.609375 10.40625 C -4.609375 11.9375 -4.023438 12.820312 -2.859375 13.0625 L -2.296875 13.09375 C -0.367188 13.09375 1.15625 12.296875 2.28125 10.703125 C 3.4375 9.078125 4.34375 7.035156 5 4.578125 C 5.65625 2.085938 6.5 -1.804688 7.53125 -7.109375 L 7.25 -7.109375 C 4.71875 -2.347656 2.628906 0.03125 0.984375 0.03125 C -0.867188 0.03125 -1.796875 -1.363281 -1.796875 -4.15625 C -1.796875 -5.769531 -1.375 -7.539062 -0.53125 -9.46875 C 0.644531 -12.070312 2.132812 -13.773438 3.9375 -14.578125 C 4.570312 -14.828125 5.210938 -14.953125 5.859375 -14.953125 C 6.503906 -14.953125 7.015625 -14.765625 7.390625 -14.390625 C 7.765625 -14.015625 7.953125 -13.59375 7.953125 -13.125 C 7.953125 -12.914062 7.835938 -12.816406 7.609375 -12.828125 C 7.390625 -12.835938 7.28125 -12.945312 7.28125 -13.15625 C 7.28125 -13.375 7.164062 -13.570312 6.9375 -13.75 C 6.71875 -13.925781 6.398438 -14.015625 5.984375 -14.015625 C 4.503906 -14.015625 3.164062 -12.6875 1.96875 -10.03125 C 0.84375 -7.570312 0.28125 -5.238281 0.28125 -3.03125 C 0.28125 -1.664062 0.570312 -0.984375 1.15625 -0.984375 C 1.925781 -0.984375 2.9375 -1.898438 4.1875 -3.734375 C 6.0625 -6.503906 7.523438 -9.210938 8.578125 -11.859375 C 8.859375 -12.515625 9.140625 -12.84375 9.421875 -12.84375 Z M 9.421875 -12.84375 "/></g></g></g><g fill="#c8c1a8" fill-opacity="0.5216"><g transform="translate(271.346092, 55.323942)"><g><path d="M 0.875 -5.140625 C 0.875 -2.296875 1.882812 -0.875 3.90625 -0.875 C 4.65625 -0.875 5.445312 -1.207031 6.28125 -1.875 C 7.113281 -2.550781 7.867188 -3.359375 8.546875 -4.296875 C 10.046875 -6.453125 11.101562 -8.210938 11.71875 -9.578125 L 12.171875 -10.5625 L 13.125 -10.5625 C 12.726562 -9.625 12.140625 -8.46875 11.359375 -7.09375 C 10.585938 -5.71875 9.847656 -4.5625 9.140625 -3.625 C 8.441406 -2.6875 7.609375 -1.832031 6.640625 -1.0625 C 5.679688 -0.300781 4.769531 0.078125 3.90625 0.078125 C 0.425781 0.078125 -1.3125 -1.867188 -1.3125 -5.765625 C -1.3125 -7.578125 -0.78125 -9.382812 0.28125 -11.1875 C 1.726562 -13.695312 3.519531 -14.953125 5.65625 -14.953125 C 7.164062 -14.953125 7.921875 -14.132812 7.921875 -12.5 C 7.921875 -11.28125 7.453125 -10.007812 6.515625 -8.6875 C 5.191406 -6.90625 3.648438 -6.003906 1.890625 -5.984375 C 1.640625 -5.984375 1.476562 -6.101562 1.40625 -6.34375 L 1.375 -6.484375 C 2.59375 -6.484375 3.757812 -7.285156 4.875 -8.890625 C 5.988281 -10.492188 6.546875 -11.835938 6.546875 -12.921875 C 6.546875 -13.648438 6.265625 -14.015625 5.703125 -14.015625 C 4.453125 -14.015625 3.289062 -12.921875 2.21875 -10.734375 C 1.320312 -8.878906 0.875 -7.015625 0.875 -5.140625 Z M 0.875 -5.140625 "/></g></g></g><g fill="#ffffff" fill-opacity="1"><g transform="translate(17.753911, 55.499994)"><g><path d="M 17.140625 -24.640625 C 17.460938 -24.640625 17.671875 -24.5 17.765625 -24.21875 L 17.84375 -24.046875 C 16.832031 -24.046875 16.085938 -23.441406 15.609375 -22.234375 C 15.128906 -21.023438 14.757812 -19.242188 14.5 -16.890625 C 16.488281 -16.515625 18.015625 -15.34375 19.078125 -13.375 C 20.578125 -14.332031 21.742188 -15.617188 22.578125 -17.234375 C 23.410156 -18.859375 23.828125 -20.457031 23.828125 -22.03125 C 23.828125 -23.601562 23.234375 -24.960938 22.046875 -26.109375 C 20.859375 -27.265625 19.164062 -27.84375 16.96875 -27.84375 C 12.71875 -27.84375 9.429688 -26.328125 7.109375 -23.296875 C 5.484375 -21.160156 4.671875 -18.882812 4.671875 -16.46875 C 4.671875 -14.050781 5.296875 -12.421875 6.546875 -11.578125 C 7.054688 -11.253906 7.617188 -11.09375 8.234375 -11.09375 C 7.992188 -10.550781 7.628906 -10.28125 7.140625 -10.28125 C 5.378906 -10.28125 4.148438 -11.207031 3.453125 -13.0625 C 3.097656 -13.945312 2.921875 -14.957031 2.921875 -16.09375 C 2.921875 -17.238281 3.175781 -18.515625 3.6875 -19.921875 C 4.769531 -22.992188 6.71875 -25.316406 9.53125 -26.890625 C 11.695312 -28.109375 14.175781 -28.71875 16.96875 -28.71875 C 18.957031 -28.71875 20.644531 -28.398438 22.03125 -27.765625 C 23.414062 -27.140625 24.410156 -26.332031 25.015625 -25.34375 C 25.679688 -24.238281 26.015625 -23.054688 26.015625 -21.796875 C 26.015625 -20.546875 25.769531 -19.34375 25.28125 -18.1875 C 24.800781 -17.039062 24.0625 -15.921875 23.0625 -14.828125 C 22.070312 -13.742188 20.90625 -12.875 19.5625 -12.21875 C 20.15625 -10.6875 20.6875 -7.847656 21.15625 -3.703125 C 21.3125 -2.359375 21.53125 -1.050781 21.8125 0.21875 C 22.425781 2.882812 23.734375 4.21875 25.734375 4.21875 C 25.679688 4.644531 25.375 4.859375 24.8125 4.859375 C 21.945312 4.859375 20.210938 3.5 19.609375 0.78125 C 19.296875 -0.507812 19.097656 -1.8125 19.015625 -3.125 C 18.941406 -4.445312 18.867188 -5.945312 18.796875 -7.625 C 18.722656 -9.300781 18.554688 -10.65625 18.296875 -11.6875 C 17.003906 -11.21875 15.632812 -10.984375 14.1875 -10.984375 L 13.859375 -10.984375 C 13.203125 -5.890625 12.085938 -2.40625 10.515625 -0.53125 C 9.890625 0.25 9.066406 0.894531 8.046875 1.40625 C 7.023438 1.925781 5.894531 2.1875 4.65625 2.1875 C 3.425781 2.1875 2.394531 1.972656 1.5625 1.546875 C 0.726562 1.128906 0.125 0.585938 -0.25 -0.078125 C -0.769531 -1.035156 -1.03125 -1.910156 -1.03125 -2.703125 C -1.03125 -3.503906 -0.910156 -4.25 -0.671875 -4.9375 C -0.441406 -5.632812 -0.101562 -6.316406 0.34375 -6.984375 C 0.789062 -7.648438 1.378906 -8.191406 2.109375 -8.609375 C 2.835938 -9.035156 3.625 -9.25 4.46875 -9.25 C 4.9375 -9.25 5.265625 -9.085938 5.453125 -8.765625 L 5.515625 -8.59375 C 3.472656 -8.59375 1.914062 -7.722656 0.84375 -5.984375 C 0.226562 -4.992188 -0.078125 -3.984375 -0.078125 -2.953125 C -0.078125 -2.484375 -0.015625 -2.003906 0.109375 -1.515625 C 0.617188 0.316406 1.90625 1.234375 3.96875 1.234375 C 4.957031 1.234375 5.84375 0.984375 6.625 0.484375 C 7.414062 -0.00390625 8.0625 -0.609375 8.5625 -1.328125 C 9.070312 -2.054688 9.535156 -3.019531 9.953125 -4.21875 C 10.585938 -6.070312 11.148438 -8.457031 11.640625 -11.375 C 10.753906 -11.675781 10.125 -12.113281 9.75 -12.6875 C 9.375 -13.257812 9.1875 -13.695312 9.1875 -14 C 9.1875 -14.3125 9.1875 -14.523438 9.1875 -14.640625 C 9.300781 -15.253906 9.65625 -15.800781 10.25 -16.28125 C 10.851562 -16.757812 11.632812 -17.007812 12.59375 -17.03125 C 12.90625 -18.632812 13.222656 -19.945312 13.546875 -20.96875 C 13.878906 -21.988281 14.347656 -22.851562 14.953125 -23.5625 C 15.566406 -24.28125 16.296875 -24.640625 17.140625 -24.640625 Z M 14.140625 -11.890625 C 15.460938 -11.890625 16.742188 -12.175781 17.984375 -12.75 C 17.273438 -14.59375 16.085938 -15.707031 14.421875 -16.09375 L 14 -11.890625 Z M 12.453125 -16.234375 C 11.609375 -16.160156 11.007812 -15.90625 10.65625 -15.46875 C 10.3125 -15.03125 10.140625 -14.671875 10.140625 -14.390625 C 10.140625 -13.429688 10.6875 -12.726562 11.78125 -12.28125 C 12.0625 -14.0625 12.285156 -15.378906 12.453125 -16.234375 Z M 12.453125 -16.234375 "/></g></g></g><g fill="#ffffff" fill-opacity="1"><g transform="translate(45.134688, 55.499994)"><g><path d="M 0.875 -5.140625 C 0.875 -2.296875 1.882812 -0.875 3.90625 -0.875 C 4.65625 -0.875 5.445312 -1.207031 6.28125 -1.875 C 7.113281 -2.550781 7.867188 -3.359375 8.546875 -4.296875 C 10.046875 -6.453125 11.101562 -8.210938 11.71875 -9.578125 L 12.171875 -10.5625 L 13.125 -10.5625 C 12.726562 -9.625 12.140625 -8.46875 11.359375 -7.09375 C 10.585938 -5.71875 9.847656 -4.5625 9.140625 -3.625 C 8.441406 -2.6875 7.609375 -1.832031 6.640625 -1.0625 C 5.679688 -0.300781 4.769531 0.078125 3.90625 0.078125 C 0.425781 0.078125 -1.3125 -1.867188 -1.3125 -5.765625 C -1.3125 -7.578125 -0.78125 -9.382812 0.28125 -11.1875 C 1.726562 -13.695312 3.519531 -14.953125 5.65625 -14.953125 C 7.164062 -14.953125 7.921875 -14.132812 7.921875 -12.5 C 7.921875 -11.28125 7.453125 -10.007812 6.515625 -8.6875 C 5.191406 -6.90625 3.648438 -6.003906 1.890625 -5.984375 C 1.640625 -5.984375 1.476562 -6.101562 1.40625 -6.34375 L 1.375 -6.484375 C 2.59375 -6.484375 3.757812 -7.285156 4.875 -8.890625 C 5.988281 -10.492188 6.546875 -11.835938 6.546875 -12.921875 C 6.546875 -13.648438 6.265625 -14.015625 5.703125 -14.015625 C 4.453125 -14.015625 3.289062 -12.921875 2.21875 -10.734375 C 1.320312 -8.878906 0.875 -7.015625 0.875 -5.140625 Z M 0.875 -5.140625 "/></g></g></g><g fill="#ffffff" fill-opacity="1"><g transform="translate(57.276548, 55.499994)"><g><path d="M 0.84375 -5 C 0.84375 -2.25 1.789062 -0.875 3.6875 -0.875 C 4.4375 -0.875 5.226562 -1.207031 6.0625 -1.875 C 6.894531 -2.550781 7.65625 -3.359375 8.34375 -4.296875 C 9.84375 -6.453125 10.894531 -8.210938 11.5 -9.578125 L 11.96875 -10.5625 L 12.921875 -10.5625 C 12.515625 -9.625 11.925781 -8.46875 11.15625 -7.09375 C 10.382812 -5.71875 9.644531 -4.5625 8.9375 -3.625 C 8.226562 -2.6875 7.394531 -1.832031 6.4375 -1.0625 C 5.476562 -0.300781 4.5625 0.078125 3.6875 0.078125 C 1.25 0.078125 -0.296875 -1.039062 -0.953125 -3.28125 C -1.160156 -3.976562 -1.265625 -4.859375 -1.265625 -5.921875 C -1.265625 -6.992188 -0.9375 -8.304688 -0.28125 -9.859375 C 0.675781 -12.160156 1.988281 -13.707031 3.65625 -14.5 C 4.3125 -14.800781 4.960938 -14.953125 5.609375 -14.953125 C 6.253906 -14.953125 6.765625 -14.78125 7.140625 -14.4375 C 7.585938 -14.007812 7.8125 -13.519531 7.8125 -12.96875 C 7.8125 -12.414062 7.75 -11.90625 7.625 -11.4375 C 7.507812 -10.96875 7.269531 -10.550781 6.90625 -10.1875 C 6.550781 -9.820312 6.148438 -9.640625 5.703125 -9.640625 C 5.515625 -9.640625 5.375 -9.769531 5.28125 -10.03125 C 5.46875 -10.03125 5.71875 -10.363281 6.03125 -11.03125 C 6.351562 -11.695312 6.515625 -12.359375 6.515625 -13.015625 C 6.515625 -13.679688 6.226562 -14.015625 5.65625 -14.015625 C 4.4375 -14.015625 3.328125 -12.992188 2.328125 -10.953125 C 1.335938 -8.910156 0.84375 -6.925781 0.84375 -5 Z M 0.84375 -5 "/></g></g></g><g fill="#ffffff" fill-opacity="1"><g transform="translate(69.207242, 55.499994)"><g><path d="M 0.875 -5.140625 C 0.875 -2.296875 1.882812 -0.875 3.90625 -0.875 C 4.65625 -0.875 5.445312 -1.207031 6.28125 -1.875 C 7.113281 -2.550781 7.867188 -3.359375 8.546875 -4.296875 C 10.046875 -6.453125 11.101562 -8.210938 11.71875 -9.578125 L 12.171875 -10.5625 L 13.125 -10.5625 C 12.726562 -9.625 12.140625 -8.46875 11.359375 -7.09375 C 10.585938 -5.71875 9.847656 -4.5625 9.140625 -3.625 C 8.441406 -2.6875 7.609375 -1.832031 6.640625 -1.0625 C 5.679688 -0.300781 4.769531 0.078125 3.90625 0.078125 C 0.425781 0.078125 -1.3125 -1.867188 -1.3125 -5.765625 C -1.3125 -7.578125 -0.78125 -9.382812 0.28125 -11.1875 C 1.726562 -13.695312 3.519531 -14.953125 5.65625 -14.953125 C 7.164062 -14.953125 7.921875 -14.132812 7.921875 -12.5 C 7.921875 -11.28125 7.453125 -10.007812 6.515625 -8.6875 C 5.191406 -6.90625 3.648438 -6.003906 1.890625 -5.984375 C 1.640625 -5.984375 1.476562 -6.101562 1.40625 -6.34375 L 1.375 -6.484375 C 2.59375 -6.484375 3.757812 -7.285156 4.875 -8.890625 C 5.988281 -10.492188 6.546875 -11.835938 6.546875 -12.921875 C 6.546875 -13.648438 6.265625 -14.015625 5.703125 -14.015625 C 4.453125 -14.015625 3.289062 -12.921875 2.21875 -10.734375 C 1.320312 -8.878906 0.875 -7.015625 0.875 -5.140625 Z M 0.875 -5.140625 "/></g></g></g><g fill="#ffffff" fill-opacity="1"><g transform="translate(81.349102, 55.499994)"><g><path d="M -0.984375 -15.375 C -0.984375 -15.632812 -0.820312 -15.765625 -0.5 -15.765625 L 1.34375 -15.765625 C 1.457031 -16.234375 1.609375 -16.820312 1.796875 -17.53125 L 2.28125 -19.359375 C 2.425781 -19.898438 2.550781 -20.390625 2.65625 -20.828125 C 2.757812 -21.273438 2.96875 -21.5 3.28125 -21.5 C 3.675781 -21.5 3.957031 -21.195312 4.125 -20.59375 C 4.1875 -20.332031 4.21875 -20.015625 4.21875 -19.640625 C 4.21875 -19.265625 4.148438 -18.785156 4.015625 -18.203125 L 3.34375 -15.765625 L 5.53125 -15.765625 C 5.738281 -15.765625 5.882812 -15.691406 5.96875 -15.546875 C 6.050781 -15.410156 6.050781 -15.273438 5.96875 -15.140625 C 5.882812 -15.015625 5.738281 -14.953125 5.53125 -14.953125 L 3.125 -14.953125 C 1.675781 -9.492188 0.953125 -5.625 0.953125 -3.34375 C 0.953125 -1.675781 1.328125 -0.84375 2.078125 -0.84375 C 2.679688 -0.84375 3.535156 -1.648438 4.640625 -3.265625 C 5.742188 -4.890625 6.695312 -6.507812 7.5 -8.125 L 8.6875 -10.5625 L 9.640625 -10.5625 C 9.503906 -10.28125 9.320312 -9.894531 9.09375 -9.40625 C 8.875 -8.925781 8.4375 -8.070312 7.78125 -6.84375 C 7.125 -5.613281 6.492188 -4.53125 5.890625 -3.59375 C 5.296875 -2.65625 4.628906 -1.800781 3.890625 -1.03125 C 3.148438 -0.269531 2.460938 0.109375 1.828125 0.109375 C 1.191406 0.109375 0.644531 -0.09375 0.1875 -0.5 C -0.269531 -0.914062 -0.5625 -1.503906 -0.6875 -2.265625 C -0.8125 -3.035156 -0.875 -3.816406 -0.875 -4.609375 C -0.875 -6.460938 -0.21875 -9.910156 1.09375 -14.953125 L -0.5 -14.953125 C -0.6875 -14.953125 -0.8125 -15.003906 -0.875 -15.109375 C -0.945312 -15.222656 -0.984375 -15.3125 -0.984375 -15.375 Z M -0.984375 -15.375 "/></g></g></g><g fill="#ffffff" fill-opacity="1"><g transform="translate(90.041964, 55.499994)"><g><path d="M -0.984375 -15.375 C -0.984375 -15.632812 -0.820312 -15.765625 -0.5 -15.765625 L 1.34375 -15.765625 C 1.457031 -16.234375 1.609375 -16.820312 1.796875 -17.53125 L 2.28125 -19.359375 C 2.425781 -19.898438 2.550781 -20.390625 2.65625 -20.828125 C 2.757812 -21.273438 2.96875 -21.5 3.28125 -21.5 C 3.675781 -21.5 3.957031 -21.195312 4.125 -20.59375 C 4.1875 -20.332031 4.21875 -20.015625 4.21875 -19.640625 C 4.21875 -19.265625 4.148438 -18.785156 4.015625 -18.203125 L 3.34375 -15.765625 L 5.53125 -15.765625 C 5.738281 -15.765625 5.882812 -15.691406 5.96875 -15.546875 C 6.050781 -15.410156 6.050781 -15.273438 5.96875 -15.140625 C 5.882812 -15.015625 5.738281 -14.953125 5.53125 -14.953125 L 3.125 -14.953125 C 1.675781 -9.492188 0.953125 -5.625 0.953125 -3.34375 C 0.953125 -1.675781 1.328125 -0.84375 2.078125 -0.84375 C 2.679688 -0.84375 3.535156 -1.648438 4.640625 -3.265625 C 5.742188 -4.890625 6.695312 -6.507812 7.5 -8.125 L 8.6875 -10.5625 L 9.640625 -10.5625 C 9.503906 -10.28125 9.320312 -9.894531 9.09375 -9.40625 C 8.875 -8.925781 8.4375 -8.070312 7.78125 -6.84375 C 7.125 -5.613281 6.492188 -4.53125 5.890625 -3.59375 C 5.296875 -2.65625 4.628906 -1.800781 3.890625 -1.03125 C 3.148438 -0.269531 2.460938 0.109375 1.828125 0.109375 C 1.191406 0.109375 0.644531 -0.09375 0.1875 -0.5 C -0.269531 -0.914062 -0.5625 -1.503906 -0.6875 -2.265625 C -0.8125 -3.035156 -0.875 -3.816406 -0.875 -4.609375 C -0.875 -6.460938 -0.21875 -9.910156 1.09375 -14.953125 L -0.5 -14.953125 C -0.6875 -14.953125 -0.8125 -15.003906 -0.875 -15.109375 C -0.945312 -15.222656 -0.984375 -15.3125 -0.984375 -15.375 Z M -0.984375 -15.375 "/></g></g></g><g fill="#ffffff" fill-opacity="1"><g transform="translate(98.734827, 55.499994)"><g><path d="M 0.875 -5.140625 C 0.875 -2.296875 1.882812 -0.875 3.90625 -0.875 C 4.65625 -0.875 5.445312 -1.207031 6.28125 -1.875 C 7.113281 -2.550781 7.867188 -3.359375 8.546875 -4.296875 C 10.046875 -6.453125 11.101562 -8.210938 11.71875 -9.578125 L 12.171875 -10.5625 L 13.125 -10.5625 C 12.726562 -9.625 12.140625 -8.46875 11.359375 -7.09375 C 10.585938 -5.71875 9.847656 -4.5625 9.140625 -3.625 C 8.441406 -2.6875 7.609375 -1.832031 6.640625 -1.0625 C 5.679688 -0.300781 4.769531 0.078125 3.90625 0.078125 C 0.425781 0.078125 -1.3125 -1.867188 -1.3125 -5.765625 C -1.3125 -7.578125 -0.78125 -9.382812 0.28125 -11.1875 C 1.726562 -13.695312 3.519531 -14.953125 5.65625 -14.953125 C 7.164062 -14.953125 7.921875 -14.132812 7.921875 -12.5 C 7.921875 -11.28125 7.453125 -10.007812 6.515625 -8.6875 C 5.191406 -6.90625 3.648438 -6.003906 1.890625 -5.984375 C 1.640625 -5.984375 1.476562 -6.101562 1.40625 -6.34375 L 1.375 -6.484375 C 2.59375 -6.484375 3.757812 -7.285156 4.875 -8.890625 C 5.988281 -10.492188 6.546875 -11.835938 6.546875 -12.921875 C 6.546875 -13.648438 6.265625 -14.015625 5.703125 -14.015625 C 4.453125 -14.015625 3.289062 -12.921875 2.21875 -10.734375 C 1.320312 -8.878906 0.875 -7.015625 0.875 -5.140625 Z M 0.875 -5.140625 "/></g></g></g><g fill="#ffffff" fill-opacity="1"><g transform="translate(110.876687, 55.499994)"><g><path d="M 4.328125 -18.796875 L 4.40625 -18.796875 C 4.613281 -18.773438 4.773438 -18.679688 4.890625 -18.515625 C 5.003906 -18.347656 5.0625 -18.175781 5.0625 -18 C 5.0625 -17.820312 4.90625 -17.453125 4.59375 -16.890625 C 4.28125 -16.328125 4.125 -15.875 4.125 -15.53125 C 4.125 -15.195312 4.171875 -14.882812 4.265625 -14.59375 C 4.359375 -14.300781 4.648438 -13.585938 5.140625 -12.453125 C 6.222656 -9.992188 6.765625 -7.796875 6.765625 -5.859375 C 6.765625 -3.921875 6.238281 -2.316406 5.1875 -1.046875 C 4.144531 0.210938 2.898438 0.84375 1.453125 0.84375 C 0.015625 0.84375 -0.703125 -0.03125 -0.703125 -1.78125 C -0.703125 -3.53125 -0.0820312 -5.398438 1.15625 -7.390625 C 1.882812 -8.535156 2.671875 -9.40625 3.515625 -10 C 3.753906 -10.164062 3.914062 -10.128906 4 -9.890625 C 4.082031 -9.660156 4.03125 -9.472656 3.84375 -9.328125 C 2.476562 -8.335938 1.421875 -6.773438 0.671875 -4.640625 C -0.015625 -2.722656 -0.0859375 -1.390625 0.453125 -0.640625 C 0.640625 -0.359375 0.910156 -0.21875 1.265625 -0.21875 C 2.296875 -0.21875 3.101562 -0.90625 3.6875 -2.28125 C 4.28125 -3.664062 4.578125 -5.394531 4.578125 -7.46875 C 4.578125 -9.25 4.363281 -10.898438 3.9375 -12.421875 C 3.519531 -13.953125 3.285156 -14.832031 3.234375 -15.0625 C 2.535156 -13.726562 1.773438 -12.226562 0.953125 -10.5625 L 0 -10.5625 C 1.332031 -13.207031 2.363281 -15.203125 3.09375 -16.546875 C 3.1875 -18.046875 3.597656 -18.796875 4.328125 -18.796875 Z M 4.328125 -18.796875 "/></g></g></g><g fill="#ffffff" fill-opacity="1"><g transform="translate(122.033119, 55.499994)"><g/></g></g><g fill="#ffffff" fill-opacity="1"><g transform="translate(132.591254, 55.499994)"><g><path d="M 0.875 -5.140625 C 0.875 -2.296875 1.882812 -0.875 3.90625 -0.875 C 4.65625 -0.875 5.445312 -1.207031 6.28125 -1.875 C 7.113281 -2.550781 7.867188 -3.359375 8.546875 -4.296875 C 10.046875 -6.453125 11.101562 -8.210938 11.71875 -9.578125 L 12.171875 -10.5625 L 13.125 -10.5625 C 12.726562 -9.625 12.140625 -8.46875 11.359375 -7.09375 C 10.585938 -5.71875 9.847656 -4.5625 9.140625 -3.625 C 8.441406 -2.6875 7.609375 -1.832031 6.640625 -1.0625 C 5.679688 -0.300781 4.769531 0.078125 3.90625 0.078125 C 0.425781 0.078125 -1.3125 -1.867188 -1.3125 -5.765625 C -1.3125 -7.578125 -0.78125 -9.382812 0.28125 -11.1875 C 1.726562 -13.695312 3.519531 -14.953125 5.65625 -14.953125 C 7.164062 -14.953125 7.921875 -14.132812 7.921875 -12.5 C 7.921875 -11.28125 7.453125 -10.007812 6.515625 -8.6875 C 5.191406 -6.90625 3.648438 -6.003906 1.890625 -5.984375 C 1.640625 -5.984375 1.476562 -6.101562 1.40625 -6.34375 L 1.375 -6.484375 C 2.59375 -6.484375 3.757812 -7.285156 4.875 -8.890625 C 5.988281 -10.492188 6.546875 -11.835938 6.546875 -12.921875 C 6.546875 -13.648438 6.265625 -14.015625 5.703125 -14.015625 C 4.453125 -14.015625 3.289062 -12.921875 2.21875 -10.734375 C 1.320312 -8.878906 0.875 -7.015625 0.875 -5.140625 Z M 0.875 -5.140625 "/></g></g></g><g fill="#ffffff" fill-opacity="1"><g transform="translate(144.733114, 55.499994)"><g><path d="M -0.53125 0 C -1.1875 0 -1.515625 -0.503906 -1.515625 -1.515625 C -1.515625 -2.054688 -0.859375 -5.988281 0.453125 -13.3125 C 0.523438 -13.800781 0.738281 -14.046875 1.09375 -14.046875 C 1.507812 -14.046875 1.828125 -13.738281 2.046875 -13.125 C 2.160156 -12.800781 2.21875 -12.441406 2.21875 -12.046875 C 2.21875 -11.660156 2.171875 -11.25 2.078125 -10.8125 L 1.515625 -7.984375 L 1.71875 -7.984375 C 3.832031 -12.722656 5.851562 -15.09375 7.78125 -15.09375 C 8.53125 -15.09375 9.101562 -14.863281 9.5 -14.40625 C 9.90625 -13.957031 10.109375 -13.332031 10.109375 -12.53125 C 10.109375 -11.726562 9.789062 -10 9.15625 -7.34375 C 8.519531 -4.695312 8.203125 -2.859375 8.203125 -1.828125 C 8.203125 -0.304688 8.484375 0.453125 9.046875 0.453125 C 9.046875 0.617188 8.9375 0.785156 8.71875 0.953125 C 8.507812 1.117188 8.265625 1.203125 7.984375 1.203125 C 6.628906 1.203125 5.953125 0.132812 5.953125 -2 C 5.953125 -3.320312 6.304688 -5.3125 7.015625 -7.96875 C 7.734375 -10.632812 8.09375 -12.335938 8.09375 -13.078125 C 8.09375 -13.816406 7.800781 -14.1875 7.21875 -14.1875 C 6.375 -14.1875 5.359375 -13.082031 4.171875 -10.875 C 2.984375 -8.664062 2.03125 -6.554688 1.3125 -4.546875 C 0.601562 -2.546875 0.191406 -1.285156 0.078125 -0.765625 C -0.0234375 -0.253906 -0.226562 0 -0.53125 0 Z M -0.53125 0 "/></g></g></g><g fill="#ffffff" fill-opacity="1"><g transform="translate(159.056984, 55.499994)"><g/></g></g><g fill="#ffffff" fill-opacity="1"><g transform="translate(169.615119, 55.499994)"><g><path d="M 8.484375 -22.421875 L 14.5 -22.03125 C 15.625 -24.59375 17.066406 -25.875 18.828125 -25.875 C 19.160156 -25.875 19.382812 -25.722656 19.5 -25.421875 L 19.53125 -25.28125 C 18.101562 -25.28125 16.976562 -24.234375 16.15625 -22.140625 C 18.53125 -22.515625 20.195312 -23.523438 21.15625 -25.171875 C 21.53125 -25.828125 21.71875 -26.351562 21.71875 -26.75 C 21.71875 -27.6875 21.390625 -28.15625 20.734375 -28.15625 C 20.867188 -28.5625 21.148438 -28.765625 21.578125 -28.765625 C 22.378906 -28.765625 22.78125 -28.21875 22.78125 -27.125 C 22.78125 -26.03125 22.34375 -24.96875 21.46875 -23.9375 C 20.207031 -22.40625 18.332031 -21.515625 15.84375 -21.265625 C 15.320312 -19.566406 14.894531 -17.453125 14.5625 -14.921875 C 14.238281 -12.390625 14.054688 -10.972656 14.015625 -10.671875 C 14.898438 -11.296875 16.429688 -12.335938 18.609375 -13.796875 C 20.796875 -15.253906 22.21875 -16.207031 22.875 -16.65625 C 23.9375 -20.476562 25.304688 -23.644531 26.984375 -26.15625 C 28.660156 -28.664062 30.425781 -29.921875 32.28125 -29.921875 C 32.914062 -29.921875 33.410156 -29.71875 33.765625 -29.3125 C 34.128906 -28.914062 34.3125 -28.398438 34.3125 -27.765625 C 34.3125 -26.054688 33.488281 -24.3125 31.84375 -22.53125 C 30.207031 -20.75 27.921875 -18.820312 24.984375 -16.75 C 23.929688 -12.507812 23.40625 -8.40625 23.40625 -4.4375 C 23.40625 -0.914062 23.910156 1.710938 24.921875 3.453125 C 25.722656 4.804688 26.800781 5.484375 28.15625 5.484375 C 28.019531 5.953125 27.691406 6.1875 27.171875 6.1875 C 25.597656 6.1875 24.332031 5.554688 23.375 4.296875 C 21.914062 2.421875 21.1875 -0.601562 21.1875 -4.78125 C 21.1875 -8.019531 21.609375 -11.425781 22.453125 -15 C 17.148438 -11.476562 14.273438 -9.5625 13.828125 -9.25 C 13.128906 -4.539062 12.226562 -1.328125 11.125 0.390625 C 10.070312 1.984375 8.734375 2.78125 7.109375 2.78125 C 6.359375 2.78125 5.757812 2.519531 5.3125 2 C 4.863281 1.488281 4.640625 0.796875 4.640625 -0.078125 C 4.640625 -2.441406 6.90625 -5.335938 11.4375 -8.765625 C 12.445312 -14.984375 13.351562 -19.125 14.15625 -21.1875 L 8.90625 -21.578125 C 6.0625 -21.578125 4.03125 -20.5 2.8125 -18.34375 C 2.226562 -17.257812 1.9375 -16.175781 1.9375 -15.09375 C 1.9375 -14.53125 2.003906 -13.984375 2.140625 -13.453125 C 2.585938 -11.785156 3.46875 -10.953125 4.78125 -10.953125 C 4.78125 -10.765625 4.691406 -10.585938 4.515625 -10.421875 C 4.347656 -10.253906 4.125 -10.171875 3.84375 -10.171875 C 2.332031 -10.171875 1.285156 -10.945312 0.703125 -12.5 C 0.441406 -13.175781 0.3125 -13.945312 0.3125 -14.8125 C 0.3125 -15.6875 0.5625 -16.675781 1.0625 -17.78125 C 2.019531 -19.976562 3.632812 -21.410156 5.90625 -22.078125 C 6.707031 -22.304688 7.566406 -22.421875 8.484375 -22.421875 Z M 33.40625 -27.8125 C 33.40625 -28.695312 33.03125 -29.140625 32.28125 -29.140625 C 31.0625 -29.140625 29.847656 -28.148438 28.640625 -26.171875 C 27.429688 -24.191406 26.378906 -21.628906 25.484375 -18.484375 C 27.992188 -20.304688 29.941406 -21.972656 31.328125 -23.484375 C 32.710938 -25.003906 33.40625 -26.445312 33.40625 -27.8125 Z M 5.5625 -0.03125 C 5.5625 1.257812 6.054688 1.90625 7.046875 1.90625 C 8.046875 1.90625 8.851562 1.117188 9.46875 -0.453125 C 10.082031 -2.023438 10.65625 -4.328125 11.1875 -7.359375 C 7.4375 -4.441406 5.5625 -2 5.5625 -0.03125 Z M 5.5625 -0.03125 "/></g></g></g><g fill="#ffffff" fill-opacity="1"><g transform="translate(199.916978, 55.499994)"><g><path d="M 8.765625 -21.71875 C 8.054688 -20.851562 7.257812 -20.007812 6.375 -19.1875 C 5.5 -18.363281 4.9375 -17.953125 4.6875 -17.953125 C 4.445312 -17.953125 4.328125 -18.078125 4.328125 -18.328125 C 4.328125 -18.585938 4.601562 -19.144531 5.15625 -20 C 5.707031 -20.863281 6.367188 -21.726562 7.140625 -22.59375 C 7.421875 -22.945312 7.691406 -23.125 7.953125 -23.125 C 8.210938 -23.125 8.457031 -23.070312 8.6875 -22.96875 C 8.925781 -22.863281 9.046875 -22.695312 9.046875 -22.46875 C 9.046875 -22.25 8.953125 -22 8.765625 -21.71875 Z M 0.875 -5.140625 C 0.875 -2.296875 1.882812 -0.875 3.90625 -0.875 C 4.65625 -0.875 5.445312 -1.207031 6.28125 -1.875 C 7.113281 -2.550781 7.867188 -3.359375 8.546875 -4.296875 C 10.046875 -6.453125 11.101562 -8.210938 11.71875 -9.578125 L 12.171875 -10.5625 L 13.125 -10.5625 C 12.726562 -9.625 12.140625 -8.46875 11.359375 -7.09375 C 10.585938 -5.71875 9.847656 -4.5625 9.140625 -3.625 C 8.441406 -2.6875 7.609375 -1.832031 6.640625 -1.0625 C 5.679688 -0.300781 4.769531 0.078125 3.90625 0.078125 C 0.425781 0.078125 -1.3125 -1.867188 -1.3125 -5.765625 C -1.3125 -7.578125 -0.78125 -9.382812 0.28125 -11.1875 C 1.726562 -13.695312 3.519531 -14.953125 5.65625 -14.953125 C 7.164062 -14.953125 7.921875 -14.132812 7.921875 -12.5 C 7.921875 -11.28125 7.453125 -10.007812 6.515625 -8.6875 C 5.191406 -6.90625 3.648438 -6.003906 1.890625 -5.984375 C 1.640625 -5.984375 1.476562 -6.101562 1.40625 -6.34375 L 1.375 -6.484375 C 2.59375 -6.484375 3.757812 -7.285156 4.875 -8.890625 C 5.988281 -10.492188 6.546875 -11.835938 6.546875 -12.921875 C 6.546875 -13.648438 6.265625 -14.015625 5.703125 -14.015625 C 4.453125 -14.015625 3.289062 -12.921875 2.21875 -10.734375 C 1.320312 -8.878906 0.875 -7.015625 0.875 -5.140625 Z M 0.875 -5.140625 "/></g></g></g><g fill="#ffffff" fill-opacity="1"><g transform="translate(212.058826, 55.499994)"><g><path d="M -0.5 0 C -1.15625 0 -1.484375 -0.503906 -1.484375 -1.515625 C -1.484375 -2.054688 -0.820312 -5.988281 0.5 -13.3125 C 0.59375 -13.800781 0.800781 -14.046875 1.125 -14.046875 C 1.550781 -14.046875 1.867188 -13.738281 2.078125 -13.125 C 2.191406 -12.800781 2.25 -12.441406 2.25 -12.046875 C 2.25 -11.660156 2.203125 -11.25 2.109375 -10.8125 L 1.546875 -7.921875 L 1.71875 -7.921875 C 3.738281 -12.609375 5.59375 -14.953125 7.28125 -14.953125 C 8.21875 -14.953125 8.84375 -14.5 9.15625 -13.59375 C 9.269531 -13.238281 9.328125 -12.832031 9.328125 -12.375 C 9.328125 -11.914062 9.195312 -11.414062 8.9375 -10.875 C 8.488281 -9.957031 7.820312 -9.5 6.9375 -9.5 C 6.75 -9.5 6.601562 -9.546875 6.5 -9.640625 C 6.394531 -9.734375 6.328125 -9.863281 6.296875 -10.03125 C 6.484375 -10.03125 6.726562 -10.375 7.03125 -11.0625 C 7.34375 -11.757812 7.519531 -12.398438 7.5625 -12.984375 C 7.613281 -13.578125 7.414062 -13.921875 6.96875 -14.015625 C 6.144531 -14.015625 5.171875 -12.945312 4.046875 -10.8125 C 2.921875 -8.675781 2.015625 -6.632812 1.328125 -4.6875 C 0.648438 -2.738281 0.253906 -1.46875 0.140625 -0.875 C 0.0234375 -0.289062 -0.1875 0 -0.5 0 Z M -0.5 0 "/></g></g></g><g fill="#ffffff" fill-opacity="1"><g transform="translate(223.391223, 55.499994)"><g><path d="M 3.765625 -21.078125 C 4.304688 -21.078125 4.578125 -20.710938 4.578125 -19.984375 C 4.578125 -19.265625 4.222656 -18.679688 3.515625 -18.234375 C 3.160156 -17.992188 2.851562 -17.875 2.59375 -17.875 C 2.21875 -17.875 2 -17.992188 1.9375 -18.234375 L 1.890625 -18.34375 C 2.109375 -18.34375 2.265625 -18.570312 2.359375 -19.03125 C 2.453125 -19.488281 2.597656 -19.941406 2.796875 -20.390625 C 2.992188 -20.847656 3.316406 -21.078125 3.765625 -21.078125 Z M 1.515625 -0.84375 C 2.117188 -0.84375 2.972656 -1.648438 4.078125 -3.265625 C 5.179688 -4.890625 6.132812 -6.507812 6.9375 -8.125 L 8.125 -10.5625 L 9.078125 -10.5625 C 8.929688 -10.28125 8.75 -9.894531 8.53125 -9.40625 C 8.3125 -8.925781 7.867188 -8.070312 7.203125 -6.84375 C 6.546875 -5.613281 5.921875 -4.53125 5.328125 -3.59375 C 4.734375 -2.65625 4.066406 -1.800781 3.328125 -1.03125 C 2.585938 -0.269531 1.945312 0.109375 1.40625 0.109375 C -0.332031 0.109375 -1.203125 -1.019531 -1.203125 -3.28125 C -1.203125 -4.96875 -0.71875 -7.710938 0.25 -11.515625 C 0.34375 -11.910156 0.414062 -12.210938 0.46875 -12.421875 C 0.53125 -12.640625 0.59375 -12.914062 0.65625 -13.25 C 0.726562 -13.59375 0.800781 -13.90625 0.875 -14.1875 C 0.988281 -14.675781 1.203125 -14.921875 1.515625 -14.921875 C 1.929688 -14.921875 2.234375 -14.617188 2.421875 -14.015625 C 2.515625 -13.734375 2.5625 -13.390625 2.5625 -12.984375 C 2.5625 -12.585938 2.515625 -12.171875 2.421875 -11.734375 C 2.328125 -11.304688 2.175781 -10.664062 1.96875 -9.8125 C 1.757812 -8.96875 1.59375 -8.273438 1.46875 -7.734375 C 1.351562 -7.203125 1.226562 -6.546875 1.09375 -5.765625 C 0.832031 -4.484375 0.703125 -3.34375 0.703125 -2.34375 C 0.703125 -1.34375 0.972656 -0.84375 1.515625 -0.84375 Z M 1.515625 -0.84375 "/></g></g></g><g fill="#ffffff" fill-opacity="1"><g transform="translate(231.485811, 55.499994)"><g><path d="M -0.984375 -15.375 C -0.984375 -15.632812 -0.820312 -15.765625 -0.5 -15.765625 L 1.34375 -15.765625 C 1.457031 -16.234375 1.609375 -16.820312 1.796875 -17.53125 L 2.28125 -19.359375 C 2.425781 -19.898438 2.550781 -20.390625 2.65625 -20.828125 C 2.757812 -21.273438 2.96875 -21.5 3.28125 -21.5 C 3.675781 -21.5 3.957031 -21.195312 4.125 -20.59375 C 4.1875 -20.332031 4.21875 -20.015625 4.21875 -19.640625 C 4.21875 -19.265625 4.148438 -18.785156 4.015625 -18.203125 L 3.34375 -15.765625 L 5.53125 -15.765625 C 5.738281 -15.765625 5.882812 -15.691406 5.96875 -15.546875 C 6.050781 -15.410156 6.050781 -15.273438 5.96875 -15.140625 C 5.882812 -15.015625 5.738281 -14.953125 5.53125 -14.953125 L 3.125 -14.953125 C 1.675781 -9.492188 0.953125 -5.625 0.953125 -3.34375 C 0.953125 -1.675781 1.328125 -0.84375 2.078125 -0.84375 C 2.679688 -0.84375 3.535156 -1.648438 4.640625 -3.265625 C 5.742188 -4.890625 6.695312 -6.507812 7.5 -8.125 L 8.6875 -10.5625 L 9.640625 -10.5625 C 9.503906 -10.28125 9.320312 -9.894531 9.09375 -9.40625 C 8.875 -8.925781 8.4375 -8.070312 7.78125 -6.84375 C 7.125 -5.613281 6.492188 -4.53125 5.890625 -3.59375 C 5.296875 -2.65625 4.628906 -1.800781 3.890625 -1.03125 C 3.148438 -0.269531 2.460938 0.109375 1.828125 0.109375 C 1.191406 0.109375 0.644531 -0.09375 0.1875 -0.5 C -0.269531 -0.914062 -0.5625 -1.503906 -0.6875 -2.265625 C -0.8125 -3.035156 -0.875 -3.816406 -0.875 -4.609375 C -0.875 -6.460938 -0.21875 -9.910156 1.09375 -14.953125 L -0.5 -14.953125 C -0.6875 -14.953125 -0.8125 -15.003906 -0.875 -15.109375 C -0.945312 -15.222656 -0.984375 -15.3125 -0.984375 -15.375 Z M -0.984375 -15.375 "/></g></g></g><g fill="#ffffff" fill-opacity="1"><g transform="translate(240.178674, 55.499994)"><g><path d="M 0.984375 0.03125 C -0.867188 0.03125 -1.796875 -1.363281 -1.796875 -4.15625 C -1.796875 -5.769531 -1.375 -7.539062 -0.53125 -9.46875 C 0.644531 -12.070312 2.132812 -13.773438 3.9375 -14.578125 C 4.570312 -14.828125 5.210938 -14.953125 5.859375 -14.953125 C 6.503906 -14.953125 7.015625 -14.765625 7.390625 -14.390625 C 7.765625 -14.015625 7.953125 -13.59375 7.953125 -13.125 C 7.953125 -12.914062 7.835938 -12.816406 7.609375 -12.828125 C 7.390625 -12.835938 7.28125 -12.945312 7.28125 -13.15625 C 7.28125 -13.375 7.164062 -13.570312 6.9375 -13.75 C 6.71875 -13.925781 6.398438 -14.015625 5.984375 -14.015625 C 4.503906 -14.015625 3.164062 -12.6875 1.96875 -10.03125 C 0.84375 -7.570312 0.28125 -5.238281 0.28125 -3.03125 C 0.28125 -1.664062 0.578125 -0.984375 1.171875 -0.984375 C 1.773438 -0.984375 2.503906 -1.492188 3.359375 -2.515625 C 4.210938 -3.535156 5.003906 -4.726562 5.734375 -6.09375 C 7.304688 -8.957031 8.234375 -10.796875 8.515625 -11.609375 C 8.796875 -12.429688 9.097656 -12.84375 9.421875 -12.84375 C 10.015625 -12.84375 10.3125 -12.351562 10.3125 -11.375 C 10.3125 -11.0625 10.273438 -10.707031 10.203125 -10.3125 C 9.429688 -6.5625 9.015625 -4.390625 8.953125 -3.796875 C 8.890625 -3.210938 8.859375 -2.789062 8.859375 -2.53125 C 8.859375 -1.40625 9.128906 -0.84375 9.671875 -0.84375 C 10.285156 -0.84375 11.144531 -1.648438 12.25 -3.265625 C 13.351562 -4.890625 14.300781 -6.507812 15.09375 -8.125 L 16.296875 -10.5625 L 17.25 -10.5625 C 17.101562 -10.28125 16.914062 -9.894531 16.6875 -9.40625 C 16.46875 -8.925781 16.03125 -8.070312 15.375 -6.84375 C 14.71875 -5.613281 14.085938 -4.53125 13.484375 -3.59375 C 12.890625 -2.65625 12.222656 -1.800781 11.484375 -1.03125 C 10.742188 -0.269531 10.109375 0.109375 9.578125 0.109375 C 7.835938 0.109375 6.96875 -1.160156 6.96875 -3.703125 C 6.96875 -4.546875 7.0625 -5.53125 7.25 -6.65625 L 7 -6.65625 C 4.601562 -2.195312 2.597656 0.03125 0.984375 0.03125 Z M 0.984375 0.03125 "/></g></g></g><g fill="#ffffff" fill-opacity="1"><g transform="translate(256.438209, 55.499994)"><g><path d="M 9.421875 -12.84375 C 10.015625 -12.84375 10.3125 -12.351562 10.3125 -11.375 C 10.3125 -10.664062 9.921875 -8.628906 9.140625 -5.265625 C 8.367188 -1.898438 7.675781 0.882812 7.0625 3.09375 C 6.457031 5.300781 5.882812 6.9375 5.34375 8 C 4.800781 9.070312 4.148438 10.144531 3.390625 11.21875 C 2.628906 12.300781 1.789062 13.039062 0.875 13.4375 C -0.0390625 13.84375 -1.097656 14.046875 -2.296875 14.046875 C -4.523438 14.046875 -5.640625 12.90625 -5.640625 10.625 C -5.640625 9.289062 -5.132812 7.847656 -4.125 6.296875 C -2.664062 4.023438 -0.71875 2.523438 1.71875 1.796875 C 2.582031 1.535156 3.488281 1.40625 4.4375 1.40625 C 4.59375 1.40625 4.671875 1.566406 4.671875 1.890625 C 4.671875 2.222656 4.59375 2.390625 4.4375 2.390625 C 1.664062 2.390625 -0.65625 3.484375 -2.53125 5.671875 C -3.914062 7.304688 -4.609375 8.882812 -4.609375 10.40625 C -4.609375 11.9375 -4.023438 12.820312 -2.859375 13.0625 L -2.296875 13.09375 C -0.367188 13.09375 1.15625 12.296875 2.28125 10.703125 C 3.4375 9.078125 4.34375 7.035156 5 4.578125 C 5.65625 2.085938 6.5 -1.804688 7.53125 -7.109375 L 7.25 -7.109375 C 4.71875 -2.347656 2.628906 0.03125 0.984375 0.03125 C -0.867188 0.03125 -1.796875 -1.363281 -1.796875 -4.15625 C -1.796875 -5.769531 -1.375 -7.539062 -0.53125 -9.46875 C 0.644531 -12.070312 2.132812 -13.773438 3.9375 -14.578125 C 4.570312 -14.828125 5.210938 -14.953125 5.859375 -14.953125 C 6.503906 -14.953125 7.015625 -14.765625 7.390625 -14.390625 C 7.765625 -14.015625 7.953125 -13.59375 7.953125 -13.125 C 7.953125 -12.914062 7.835938 -12.816406 7.609375 -12.828125 C 7.390625 -12.835938 7.28125 -12.945312 7.28125 -13.15625 C 7.28125 -13.375 7.164062 -13.570312 6.9375 -13.75 C 6.71875 -13.925781 6.398438 -14.015625 5.984375 -14.015625 C 4.503906 -14.015625 3.164062 -12.6875 1.96875 -10.03125 C 0.84375 -7.570312 0.28125 -5.238281 0.28125 -3.03125 C 0.28125 -1.664062 0.570312 -0.984375 1.15625 -0.984375 C 1.925781 -0.984375 2.9375 -1.898438 4.1875 -3.734375 C 6.0625 -6.503906 7.523438 -9.210938 8.578125 -11.859375 C 8.859375 -12.515625 9.140625 -12.84375 9.421875 -12.84375 Z M 9.421875 -12.84375 "/></g></g></g><g fill="#ffffff" fill-opacity="1"><g transform="translate(270.093413, 55.499994)"><g><path d="M 0.875 -5.140625 C 0.875 -2.296875 1.882812 -0.875 3.90625 -0.875 C 4.65625 -0.875 5.445312 -1.207031 6.28125 -1.875 C 7.113281 -2.550781 7.867188 -3.359375 8.546875 -4.296875 C 10.046875 -6.453125 11.101562 -8.210938 11.71875 -9.578125 L 12.171875 -10.5625 L 13.125 -10.5625 C 12.726562 -9.625 12.140625 -8.46875 11.359375 -7.09375 C 10.585938 -5.71875 9.847656 -4.5625 9.140625 -3.625 C 8.441406 -2.6875 7.609375 -1.832031 6.640625 -1.0625 C 5.679688 -0.300781 4.769531 0.078125 3.90625 0.078125 C 0.425781 0.078125 -1.3125 -1.867188 -1.3125 -5.765625 C -1.3125 -7.578125 -0.78125 -9.382812 0.28125 -11.1875 C 1.726562 -13.695312 3.519531 -14.953125 5.65625 -14.953125 C 7.164062 -14.953125 7.921875 -14.132812 7.921875 -12.5 C 7.921875 -11.28125 7.453125 -10.007812 6.515625 -8.6875 C 5.191406 -6.90625 3.648438 -6.003906 1.890625 -5.984375 C 1.640625 -5.984375 1.476562 -6.101562 1.40625 -6.34375 L 1.375 -6.484375 C 2.59375 -6.484375 3.757812 -7.285156 4.875 -8.890625 C 5.988281 -10.492188 6.546875 -11.835938 6.546875 -12.921875 C 6.546875 -13.648438 6.265625 -14.015625 5.703125 -14.015625 C 4.453125 -14.015625 3.289062 -12.921875 2.21875 -10.734375 C 1.320312 -8.878906 0.875 -7.015625 0.875 -5.140625 Z M 0.875 -5.140625 "/></g></g></g><g clip-path="url(#68ccedb818)"><path fill="#ffffff" d="M 49.914062 12.097656 C 49.789062 10.140625 48.296875 8.378906 46.414062 7.875 C 45.207031 7.550781 43.828125 7.6875 42.722656 8.292969 C 42.675781 8.121094 42.617188 7.949219 42.554688 7.78125 C 41.789062 5.757812 39.796875 4.394531 37.722656 3.980469 C 37.3125 3.894531 36.898438 3.839844 36.484375 3.8125 C 35.289062 3.675781 34.207031 4.113281 33.214844 4.691406 C 30.621094 6.199219 28.492188 8.765625 25.375 9.082031 C 25.320312 9.085938 25.273438 9.128906 25.269531 9.183594 C 25.261719 9.246094 25.304688 9.300781 25.367188 9.308594 C 25.894531 9.375 26.429688 9.355469 26.953125 9.265625 C 28.515625 9 29.941406 8.167969 31.25 7.34375 C 32.769531 6.433594 34.578125 4.898438 36.335938 5.078125 C 38.519531 5.183594 40.753906 6.152344 41.886719 8.101562 C 41.992188 8.277344 42.089844 8.460938 42.175781 8.652344 C 41.886719 8.871094 41.625 9.136719 41.40625 9.4375 C 41.144531 9.816406 40.976562 10.277344 40.988281 10.730469 C 40.988281 10.777344 41.019531 10.824219 41.070312 10.835938 C 41.132812 10.851562 41.195312 10.816406 41.210938 10.753906 C 41.3125 10.367188 41.53125 10.035156 41.808594 9.769531 C 41.996094 9.59375 42.199219 9.441406 42.421875 9.3125 C 42.566406 9.222656 42.714844 9.144531 42.871094 9.078125 C 44.21875 8.480469 45.910156 8.574219 47.117188 9.367188 C 47.957031 9.929688 48.570312 10.832031 48.730469 11.828125 C 48.800781 12.300781 48.765625 12.777344 48.71875 13.25 C 48.566406 14.65625 47.863281 15.996094 46.597656 16.652344 C 45.835938 17.054688 44.988281 17.300781 44.125 17.371094 C 42.503906 17.535156 41.230469 16.921875 39.851562 16.367188 C 40.886719 15.96875 41.890625 15.15625 41.914062 13.992188 C 41.917969 13.867188 41.742188 13.835938 41.695312 13.949219 C 41.398438 14.640625 40.84375 15.085938 40.191406 15.414062 C 39.746094 15.640625 39.265625 15.785156 38.804688 15.984375 C 38.625 15.925781 38.445312 15.871094 38.257812 15.824219 C 37.808594 15.710938 37.359375 15.632812 36.90625 15.585938 C 37.855469 14.898438 38.585938 13.820312 38.808594 12.75 C 38.9375 12.191406 38.964844 11.574219 38.726562 11.042969 C 38.671875 10.921875 38.488281 10.984375 38.511719 11.109375 C 38.589844 11.617188 38.46875 12.125 38.285156 12.59375 C 37.808594 13.886719 36.761719 14.890625 35.53125 15.464844 C 35.496094 15.484375 35.457031 15.5 35.421875 15.519531 C 34.910156 15.527344 34.394531 15.5625 33.886719 15.621094 C 33.917969 15.585938 33.949219 15.550781 33.980469 15.511719 C 34.546875 14.855469 34.917969 13.976562 34.871094 13.113281 C 34.871094 13.0625 34.835938 13.019531 34.785156 13.007812 C 34.726562 12.992188 34.664062 13.03125 34.652344 13.09375 C 34.59375 13.34375 34.511719 13.578125 34.40625 13.800781 C 34.097656 14.460938 33.589844 15.011719 32.984375 15.402344 C 31.4375 16.402344 29.109375 16.207031 27.550781 15.339844 C 26.707031 14.839844 26.058594 14.023438 25.355469 13.3125 C 25.265625 13.222656 25.125 13.320312 25.167969 13.433594 C 25.359375 13.929688 25.59375 14.40625 25.890625 14.867188 C 26.496094 15.839844 27.320312 16.4375 28.324219 16.765625 C 27.96875 16.882812 27.617188 17.019531 27.277344 17.183594 C 26.378906 17.597656 25.496094 18.207031 24.511719 18.238281 C 22.347656 18.542969 20.253906 15.4375 19.804688 13.574219 C 19.402344 11.988281 20.105469 10.195312 21.519531 9.34375 C 23.304688 8.242188 25.546875 8.28125 27.496094 7.480469 C 28.402344 7.136719 29.171875 6.519531 29.972656 6.003906 C 30.085938 5.929688 29.992188 5.753906 29.863281 5.808594 C 29.011719 6.210938 28.226562 6.726562 27.320312 6.984375 C 25.984375 7.382812 24.535156 7.457031 23.152344 7.761719 C 22.175781 7.972656 21.175781 8.335938 20.386719 8.976562 C 19.027344 10.054688 18.363281 11.898438 18.6875 13.605469 C 19 15.328125 20.253906 17.3125 21.605469 18.421875 C 22.425781 19.101562 23.527344 19.582031 24.632812 19.4375 C 24.929688 19.429688 25.214844 19.382812 25.488281 19.3125 C 25.675781 20.660156 25.835938 22.011719 25.9375 23.363281 C 26.003906 24.175781 26.023438 25.144531 26.011719 25.960938 C 26.011719 25.960938 27.003906 25.496094 27.003906 25.496094 C 27.96875 25.050781 29.066406 24.773438 30.125 24.554688 C 33.027344 23.988281 37.324219 23.585938 40.109375 24.644531 C 40.160156 24.667969 40.222656 24.648438 40.25 24.59375 C 40.28125 24.539062 40.257812 24.472656 40.203125 24.445312 C 37.433594 23.09375 32.992188 23.117188 29.949219 23.429688 C 29.070312 23.53125 28.214844 23.660156 27.363281 23.882812 C 27.179688 22.214844 26.878906 20.566406 26.554688 18.921875 C 27.164062 18.644531 27.714844 18.324219 28.347656 18.085938 C 29.101562 17.804688 29.902344 17.636719 30.707031 17.46875 C 31.917969 17.210938 33.15625 16.96875 34.378906 16.867188 C 35.78125 16.746094 37.175781 16.808594 38.507812 17.242188 C 39.285156 17.5 40.019531 17.851562 40.796875 18.136719 C 40.664062 19.453125 40.667969 20.804688 40.632812 22.128906 C 39.371094 21.703125 38.050781 21.472656 36.726562 21.363281 C 35.105469 21.246094 33.421875 21.34375 31.890625 21.929688 C 31.839844 21.949219 31.808594 22.003906 31.824219 22.0625 C 31.839844 22.121094 31.902344 22.15625 31.960938 22.140625 C 32.722656 21.941406 33.511719 21.875 34.296875 21.886719 C 36.242188 21.929688 38.175781 22.40625 39.957031 23.167969 C 40.304688 23.324219 40.644531 23.492188 40.960938 23.675781 C 40.960938 23.675781 41.886719 24.117188 41.886719 24.117188 C 41.898438 23.847656 41.945312 23.023438 41.945312 22.761719 C 41.96875 21.386719 41.914062 19.894531 42.003906 18.496094 C 43.746094 18.867188 45.628906 18.597656 47.191406 17.734375 C 49.238281 16.617188 50.039062 14.324219 49.914062 12.097656 Z M 49.914062 12.097656 " fill-opacity="1" fill-rule="nonzero"/></g></svg>